<svg width="40" height="40" viewBox="0 0 40 40" fill="none" xmlns="http://www.w3.org/2000/svg">
<path d="M20 39.9999C31.0457 39.9999 40 31.0456 40 20C40 8.95429 31.0457 0 20 0C8.9543 0 0 8.95429 0 20C0 31.0456 8.9543 39.9999 20 39.9999Z" fill="white"/>
<path d="M24.9851 8.99976H21.5888C19.5734 8.99976 17.3316 9.84744 17.3316 12.769C17.3415 13.7869 17.3316 14.7619 17.3316 15.8591H15V19.5694H17.4038V30.2508H21.8208V19.4989H24.7362L25 15.8487H21.7447C21.7447 15.8487 21.752 14.2249 21.7447 13.7533C21.7447 12.5988 22.946 12.6649 23.0183 12.6649C23.5899 12.6649 24.7014 12.6666 24.9868 12.6649V8.99976H24.9851Z" fill="#3C5A9A"/>
</svg>
