<svg width="140" height="37" viewBox="0 0 140 37" fill="none" xmlns="http://www.w3.org/2000/svg">
<path d="M22.4863 17.0847C22.4863 13.1091 25.7165 11.1213 25.965 10.9971C24.1014 8.26383 21.1197 7.89112 20.1258 7.89112C17.6411 7.64264 15.2806 9.38197 14.0382 9.38197C12.7958 9.38197 10.808 7.89112 8.82021 8.01535C6.21122 8.01535 3.72647 9.63044 2.35985 11.991C-0.497608 16.8362 1.61443 24.042 4.34766 28.0176C5.71427 30.0054 7.32936 32.1174 9.31716 31.9932C11.305 31.869 12.0504 30.7508 14.5351 30.7508C16.8956 30.7508 17.6411 31.9932 19.7531 31.9932C21.8651 31.9932 23.2318 30.0054 24.5984 28.1418C26.2135 25.9056 26.8346 23.7935 26.8346 23.6693C26.7104 23.4208 22.6106 21.8057 22.4863 17.0847Z" fill="#1D1E2C"/>
<path d="M18.5079 5.28252C19.626 3.91591 20.3714 2.05234 20.123 0.188782C18.5079 0.313019 16.6443 1.30692 15.4019 2.5493C14.408 3.66743 13.5384 5.65523 13.7868 7.39456C15.6504 7.64303 17.3897 6.64913 18.5079 5.28252Z" fill="#1D1E2C"/>
<path d="M56.1625 31.3593H53.3534L51.8877 26.5959H46.6358L45.1702 31.3593H42.4832L47.7351 15.1151H50.9106L56.1625 31.3593ZM51.5213 24.6417L50.1778 20.3669C50.0557 19.8784 49.8114 18.9013 49.3228 17.3135C49.2007 18.0463 48.9564 19.0234 48.59 20.3669L47.1244 24.6417H51.5213Z" fill="#575A65"/>
<path d="M69.7167 25.375C69.7167 27.3292 69.2282 28.917 68.1289 30.1384C67.1518 31.1155 65.9305 31.7262 64.587 31.7262C62.9992 31.7262 61.8999 31.1155 61.2893 30.0162V36.2452H58.7244V23.543C58.7244 22.3216 58.7244 20.9781 58.6022 19.6346H60.9228L61.045 21.4666C61.8999 20.1231 63.2434 19.3903 64.9534 19.3903C66.2969 19.3903 67.5182 19.8789 68.3732 20.9781C69.2282 22.0773 69.7167 23.543 69.7167 25.375ZM67.0297 25.4972C67.0297 24.3979 66.7854 23.4208 66.2969 22.688C65.6862 21.9552 64.9534 21.5888 63.9763 21.5888C63.3656 21.5888 62.7549 21.8331 62.2663 22.1995C61.7778 22.688 61.4114 23.1766 61.2893 23.9094C61.1671 24.2758 61.1671 24.5201 61.1671 24.6422V26.5964C61.1671 27.4514 61.4114 28.1842 61.8999 28.7949C62.3885 29.4056 63.1213 29.6498 63.9763 29.6498C64.9534 29.6498 65.6862 29.2834 66.2969 28.5506C66.7854 27.6956 67.0297 26.7185 67.0297 25.4972Z" fill="#575A65"/>
<path d="M83.1535 25.375C83.1535 27.3292 82.6649 28.917 81.5657 30.1384C80.5886 31.1155 79.3672 31.7262 78.0237 31.7262C76.4359 31.7262 75.3367 31.1155 74.726 30.0162V36.2452H72.1611V23.543C72.1611 22.3216 72.1611 20.9781 72.039 19.6346H74.3596L74.4817 21.4666C75.3367 20.1231 76.6802 19.3903 78.3901 19.3903C79.7336 19.3903 80.955 19.8789 81.81 20.9781C82.6649 22.0773 83.1535 23.543 83.1535 25.375ZM80.4665 25.4972C80.4665 24.3979 80.2222 23.4208 79.7336 22.688C79.123 21.9552 78.3901 21.5888 77.413 21.5888C76.8024 21.5888 76.1917 21.8331 75.7031 22.1995C75.2146 22.688 74.8482 23.1766 74.726 23.9094C74.6039 24.2758 74.6039 24.5201 74.6039 24.6422V26.5964C74.6039 27.4514 74.8482 28.1842 75.3367 28.7949C75.8253 29.4056 76.5581 29.6498 77.413 29.6498C78.3901 29.6498 79.123 29.2834 79.7336 28.5506C80.2222 27.6956 80.4665 26.7185 80.4665 25.4972Z" fill="#575A65"/>
<path d="M98.1727 26.8398C98.1727 28.1833 97.6842 29.4047 96.7071 30.2596C95.6078 31.2367 94.1422 31.7253 92.3101 31.7253C90.6002 31.7253 89.1346 31.3589 88.1575 30.7482L88.7682 28.5497C89.8674 29.2825 91.2109 29.6489 92.5544 29.6489C93.5315 29.6489 94.2643 29.4047 94.875 29.0383C95.3636 28.5497 95.73 28.0612 95.73 27.2062C95.73 26.5955 95.4857 25.9848 94.9971 25.4963C94.5086 25.0077 93.7758 24.6413 92.7987 24.2749C89.9895 23.1757 88.5239 21.71 88.5239 19.6337C88.5239 18.2902 89.0124 17.191 89.9895 16.336C90.9666 15.481 92.3101 15.1146 94.02 15.1146C95.4857 15.1146 96.7071 15.3589 97.6842 15.8474L96.9513 17.8016C95.9742 17.3131 94.9971 17.0688 93.8979 17.0688C92.9208 17.0688 92.3101 17.3131 91.6994 17.8016C91.2109 18.1681 91.0888 18.6566 91.0888 19.2673C91.0888 19.878 91.333 20.4887 91.8216 20.8551C92.3101 21.2215 93.0429 21.71 94.1422 22.0764C95.4857 22.6871 96.5849 23.2978 97.1956 24.0306C97.9284 24.7635 98.1727 25.7406 98.1727 26.8398Z" fill="#575A65"/>
<path d="M106.847 21.5881H104.038V27.3285C104.038 28.7942 104.527 29.527 105.504 29.527C105.992 29.527 106.359 29.527 106.603 29.4048L106.725 31.359C106.237 31.6033 105.504 31.6033 104.649 31.6033C103.672 31.6033 102.817 31.2369 102.206 30.6262C101.596 30.0155 101.351 28.9163 101.351 27.4506V21.5881H99.6414V19.6339H101.351V17.4354L103.916 16.7026V19.6339H106.725C106.847 19.6339 106.847 21.5881 106.847 21.5881Z" fill="#575A65"/>
<path d="M119.795 25.375C119.795 27.2071 119.307 28.6727 118.208 29.772C117.108 30.9933 115.643 31.604 113.933 31.604C112.223 31.604 110.879 30.9933 109.78 29.8941C108.681 28.7949 108.192 27.3292 108.192 25.6193C108.192 23.7873 108.681 22.3216 109.78 21.1002C110.879 20.001 112.223 19.3903 114.055 19.3903C115.765 19.3903 117.108 20.001 118.208 21.1002C119.307 22.1995 119.795 23.6651 119.795 25.375ZM117.108 25.4972C117.108 24.3979 116.864 23.543 116.376 22.688C115.887 21.7109 115.032 21.3445 114.055 21.3445C112.956 21.3445 112.223 21.8331 111.612 22.688C111.124 23.4208 110.879 24.3979 110.879 25.4972C110.879 26.5964 111.124 27.4514 111.612 28.3063C112.223 29.2834 112.956 29.6498 113.933 29.6498C114.91 29.6498 115.765 29.1613 116.253 28.1842C116.864 27.4514 117.108 26.5964 117.108 25.4972Z" fill="#575A65"/>
<path d="M128.224 21.9552C127.98 21.9552 127.736 21.8331 127.369 21.8331C126.392 21.8331 125.782 22.1995 125.293 22.9323C124.805 23.543 124.682 24.2758 124.682 25.2529V31.3598H122.117V23.2987C122.117 21.9552 122.117 20.7338 121.995 19.6346H124.316L124.438 21.8331H124.56C124.805 21.1002 125.293 20.4896 125.904 20.001C126.514 19.6346 127.125 19.3903 127.736 19.3903C127.98 19.3903 128.224 19.3903 128.346 19.3903C128.224 19.5125 128.224 21.9552 128.224 21.9552Z" fill="#575A65"/>
<path d="M139.946 25.0082C139.946 25.4967 139.946 25.8631 139.824 26.2296H132.007C132.007 27.3288 132.373 28.3059 133.106 28.9166C133.717 29.4051 134.572 29.7715 135.671 29.7715C136.77 29.7715 137.869 29.5273 138.847 29.1609L139.213 30.9929C138.114 31.4815 136.77 31.7257 135.305 31.7257C133.472 31.7257 132.007 31.2372 131.03 30.138C130.053 29.0387 129.442 27.6952 129.442 25.8632C129.442 24.1532 129.931 22.5654 130.908 21.4662C131.885 20.2448 133.228 19.6342 135.06 19.6342C136.77 19.6342 137.992 20.2448 138.847 21.4662C139.579 22.199 139.946 23.5425 139.946 25.0082ZM137.381 24.2754C137.381 23.5425 137.259 22.8097 136.892 22.3212C136.404 21.5884 135.793 21.2219 134.816 21.2219C133.961 21.2219 133.228 21.5884 132.74 22.3212C132.251 22.9319 132.007 23.5425 132.007 24.3975L137.381 24.2754Z" fill="#575A65"/>
<path d="M49.0828 5.10064C49.0828 6.56629 48.5943 7.66552 47.7393 8.39835C46.8844 9.00903 45.7851 9.37544 44.3195 9.37544C43.5867 9.37544 42.976 9.37544 42.4874 9.25331V1.43653C43.2202 1.31439 43.9531 1.31439 44.6859 1.31439C46.0294 1.31439 47.1286 1.55867 47.8615 2.16935C48.7164 2.90217 49.0828 3.87927 49.0828 5.10064ZM47.7393 5.10064C47.7393 4.12355 47.4951 3.51286 47.0065 2.90217C46.518 2.41363 45.7851 2.16935 44.808 2.16935C44.4416 2.16935 44.0752 2.16935 43.8309 2.29149V8.27621C43.9531 8.27621 44.3195 8.27621 44.6859 8.27621C45.663 8.27621 46.3958 8.03193 47.0065 7.42125C47.6172 6.81056 47.7393 6.19988 47.7393 5.10064Z" fill="#575A65"/>
<path d="M56.2883 6.32137C56.2883 7.17633 56.044 7.90915 55.5555 8.51984C55.0669 9.13052 54.3341 9.3748 53.4791 9.3748C52.6242 9.3748 52.0135 9.13052 51.4028 8.51984C50.9143 7.90915 50.67 7.29846 50.67 6.4435C50.67 5.58854 50.9143 4.85572 51.4028 4.24504C51.8914 3.63435 52.6242 3.39008 53.4791 3.39008C54.3341 3.39008 54.9448 3.63435 55.5555 4.24504C56.044 4.85572 56.2883 5.46641 56.2883 6.32137ZM54.9448 6.4435C54.9448 5.95496 54.8226 5.46641 54.5784 5.1C54.3341 4.61145 53.9677 4.36717 53.4791 4.36717C52.9906 4.36717 52.6242 4.61145 52.2578 5.1C52.0135 5.46641 51.8914 5.95496 51.8914 6.4435C51.8914 6.93205 52.0135 7.4206 52.2578 7.78701C52.502 8.27556 52.8685 8.51984 53.4791 8.51984C53.9677 8.51984 54.3341 8.27556 54.5784 7.78701C54.8226 7.4206 54.9448 6.93205 54.9448 6.4435Z" fill="#575A65"/>
<path d="M65.9385 3.51227L64.1065 9.25271H62.8851L62.1523 6.80997C61.908 6.19928 61.7858 5.5886 61.6637 4.97791C61.5416 5.5886 61.4194 6.19928 61.1752 6.80997L60.4423 9.25271H59.221L57.511 3.51227H58.8546L59.4652 6.19928C59.5874 6.80997 59.7095 7.42066 59.8317 8.03134C59.9538 7.54279 60.0759 6.93211 60.3202 6.19928L61.1752 3.51227H62.2744L63.0072 6.19928C63.2515 6.80997 63.3736 7.54279 63.4958 8.15348C63.6179 7.54279 63.74 6.93211 63.8622 6.19928L64.595 3.51227H65.9385Z" fill="#575A65"/>
<path d="M72.5342 9.25315H71.3129V5.95545C71.3129 4.97835 70.9465 4.4898 70.2136 4.4898C69.8472 4.4898 69.4808 4.61194 69.2365 4.85622C68.9923 5.10049 68.8701 5.4669 68.8701 5.83331V9.25315H67.6487V5.10049C67.6487 4.61194 67.6487 4.00126 67.6487 3.51271H68.6258V4.36767C68.748 4.12339 68.9923 3.87912 69.2365 3.63484C69.6029 3.39057 69.9694 3.26843 70.3358 3.26843C70.8243 3.26843 71.3129 3.39057 71.6793 3.75698C72.1678 4.12339 72.29 4.85622 72.29 5.71118V9.25315H72.5342Z" fill="#575A65"/>
<path d="M76.0749 9.25314H74.8536V0.947815H76.0749V9.25314Z" fill="#575A65"/>
<path d="M83.6501 6.32137C83.6501 7.17633 83.4058 7.90915 82.9172 8.51984C82.4287 9.13052 81.6959 9.3748 80.8409 9.3748C79.9859 9.3748 79.3753 9.13052 78.7646 8.51984C78.276 7.90915 78.0317 7.29846 78.0317 6.4435C78.0317 5.58854 78.276 4.85572 78.7646 4.24504C79.2531 3.63435 79.9859 3.39008 80.8409 3.39008C81.6959 3.39008 82.3065 3.63435 82.9172 4.24504C83.4058 4.85572 83.6501 5.46641 83.6501 6.32137ZM82.3065 6.4435C82.3065 5.95496 82.1844 5.46641 81.9401 5.1C81.6959 4.61145 81.3294 4.36717 80.8409 4.36717C80.3523 4.36717 79.9859 4.61145 79.6195 5.1C79.3753 5.46641 79.2531 5.95496 79.2531 6.4435C79.2531 6.93205 79.3753 7.4206 79.6195 7.78701C79.8638 8.27556 80.2302 8.51984 80.8409 8.51984C81.3294 8.51984 81.6959 8.27556 81.9401 7.78701C82.1844 7.4206 82.3065 6.93205 82.3065 6.4435Z" fill="#575A65"/>
<path d="M89.7559 9.25266H88.6567L88.5345 8.64197C88.1681 9.13052 87.5574 9.3748 86.8246 9.3748C86.3361 9.3748 85.8475 9.25266 85.4811 8.88625C85.2368 8.51984 84.9926 8.15342 84.9926 7.66488C84.9926 6.93205 85.2368 6.4435 85.8475 6.07709C86.4582 5.71068 87.3132 5.46641 88.2903 5.58854V5.46641C88.2903 4.73358 87.9238 4.36717 87.0689 4.36717C86.4582 4.36717 85.9697 4.48931 85.6032 4.73358L85.4811 3.87862C85.9697 3.51221 86.7025 3.39008 87.4353 3.39008C88.9009 3.39008 89.6338 4.1229 89.6338 5.71068V7.78701C89.7559 8.51984 89.7559 9.00838 89.7559 9.25266ZM88.4124 7.29846V6.4435C86.9467 6.4435 86.3361 6.80992 86.3361 7.54274C86.3361 7.78701 86.4582 8.03129 86.5803 8.27556C86.7025 8.3977 86.9467 8.51984 87.191 8.51984C87.4353 8.51984 87.6796 8.3977 87.9238 8.27556C88.1681 8.15342 88.2903 7.90915 88.4124 7.54274C88.4124 7.4206 88.4124 7.4206 88.4124 7.29846Z" fill="#575A65"/>
<path d="M97.0832 9.25314H95.984V8.27605C95.6176 9.00887 95.0069 9.37528 94.1519 9.37528C93.4191 9.37528 92.9305 9.13101 92.442 8.52032C91.9534 7.90963 91.7092 7.29895 91.7092 6.44399C91.7092 5.46689 91.9534 4.73407 92.442 4.12338C92.9305 3.63483 93.5412 3.26842 94.274 3.26842C95.0069 3.26842 95.6176 3.5127 95.8618 4.00124V0.947815H97.0832V7.7875C96.9611 8.27604 97.0832 8.76459 97.0832 9.25314ZM95.7397 6.8104V5.8333C95.7397 5.71116 95.7397 5.58903 95.7397 5.46689C95.6176 5.10048 95.4954 4.8562 95.2511 4.73407C95.0069 4.48979 94.7626 4.36766 94.3962 4.36766C93.9076 4.36766 93.5412 4.61193 93.2969 4.97834C93.0527 5.34475 92.9305 5.8333 92.9305 6.44399C92.9305 7.05467 93.0527 7.42108 93.2969 7.7875C93.5412 8.15391 93.9076 8.39818 94.3962 8.39818C94.7626 8.39818 95.129 8.27605 95.3733 7.90963C95.6176 7.66536 95.7397 7.29895 95.7397 6.8104Z" fill="#575A65"/>
<path d="M107.951 6.32137C107.951 7.17633 107.707 7.90915 107.218 8.51984C106.73 9.13052 105.997 9.3748 105.142 9.3748C104.287 9.3748 103.676 9.13052 103.066 8.51984C102.577 7.90915 102.333 7.29846 102.333 6.4435C102.333 5.58854 102.577 4.85572 103.066 4.24504C103.554 3.63435 104.287 3.39008 105.142 3.39008C105.997 3.39008 106.608 3.63435 107.218 4.24504C107.707 4.85572 107.951 5.46641 107.951 6.32137ZM106.73 6.4435C106.73 5.95496 106.608 5.46641 106.363 5.1C106.119 4.61145 105.753 4.36717 105.264 4.36717C104.776 4.36717 104.409 4.61145 104.043 5.1C103.798 5.46641 103.676 5.95496 103.676 6.4435C103.676 6.93205 103.798 7.4206 104.043 7.78701C104.287 8.27556 104.653 8.51984 105.264 8.51984C105.753 8.51984 106.119 8.27556 106.363 7.78701C106.608 7.4206 106.73 6.93205 106.73 6.4435Z" fill="#575A65"/>
<path d="M114.914 9.25315H113.692V5.95545C113.692 4.97835 113.326 4.4898 112.471 4.4898C112.105 4.4898 111.738 4.61194 111.494 4.85622C111.25 5.10049 111.128 5.4669 111.128 5.83331V9.25315H109.906V5.10049C109.906 4.61194 109.906 4.00126 109.906 3.51271H111.005V4.36767C111.128 4.12339 111.372 3.87912 111.616 3.63484C111.983 3.39057 112.349 3.26843 112.837 3.26843C113.326 3.26843 113.815 3.39057 114.181 3.75698C114.67 4.12339 114.792 4.85622 114.792 5.71118V9.25315H114.914Z" fill="#575A65"/>
<path d="M123.459 4.48986H121.994V7.29901C121.994 8.03183 122.238 8.39825 122.726 8.39825C122.971 8.39825 123.093 8.39825 123.337 8.39825V9.37534C123.093 9.49748 122.726 9.49748 122.36 9.49748C121.871 9.49748 121.505 9.37534 121.139 9.00893C120.894 8.64252 120.772 8.15397 120.772 7.42115V4.48986H119.917V3.51276H120.772V2.53566L121.994 2.16925V3.6349H123.459V4.48986Z" fill="#575A65"/>
<path d="M130.303 9.25314H129.082V5.95544C129.082 4.97834 128.716 4.36765 127.983 4.36765C127.372 4.36765 127.006 4.61193 126.761 5.22262C126.761 5.34475 126.761 5.46689 126.761 5.71116V9.131H125.54V0.947815H126.761V4.36765C127.128 3.75697 127.739 3.39056 128.471 3.39056C128.96 3.39056 129.448 3.5127 129.815 3.87911C130.303 4.36766 130.426 4.97834 130.426 5.8333C130.303 5.8333 130.303 9.25314 130.303 9.25314Z" fill="#575A65"/>
<path d="M137.265 6.19928C137.265 6.44356 137.265 6.5657 137.265 6.80997H133.357C133.357 7.42066 133.601 7.78707 133.968 8.15348C134.334 8.39775 134.701 8.51989 135.189 8.51989C135.8 8.51989 136.288 8.39775 136.777 8.27562L137.021 9.13058C136.533 9.37485 135.8 9.49699 135.067 9.49699C134.212 9.49699 133.479 9.25271 132.991 8.76416C132.502 8.27562 132.258 7.54279 132.258 6.68783C132.258 5.83287 132.502 5.10005 132.991 4.48937C133.479 3.87868 134.212 3.51227 134.945 3.51227C135.8 3.51227 136.41 3.87868 136.777 4.48937C137.143 4.85578 137.265 5.46646 137.265 6.19928ZM136.044 5.83287C136.044 5.46646 135.922 5.10005 135.8 4.85578C135.556 4.48937 135.189 4.36723 134.823 4.36723C134.456 4.36723 134.09 4.48937 133.846 4.85578C133.601 5.10005 133.479 5.46646 133.479 5.83287C133.357 5.83287 136.044 5.83287 136.044 5.83287Z" fill="#575A65"/>
</svg>
