<svg width="149" height="36" viewBox="0 0 149 36" fill="none" xmlns="http://www.w3.org/2000/svg">
<path d="M47.7986 5.11738C47.7986 6.13861 47.4157 7.03219 46.905 7.67045C46.1391 8.43638 45.2455 8.81934 44.0967 8.81934C42.9478 8.81934 42.0542 8.43638 41.2883 7.67045C40.5224 6.90453 40.1394 6.01096 40.1394 4.86208C40.1394 3.71319 40.5224 2.81962 41.2883 2.0537C42.0542 1.28778 42.9478 0.904816 44.0967 0.904816C44.6073 0.904816 45.1179 1.03247 45.6285 1.28778C46.1391 1.54308 46.5221 1.79839 46.7774 2.18135L46.1391 2.81962C45.6285 2.18135 44.9902 1.92604 43.969 1.92604C43.2031 1.92604 42.4372 2.18135 41.9266 2.81962C41.2883 3.33023 41.033 4.09615 41.033 4.98973C41.033 5.8833 41.2883 6.64923 41.9266 7.15984C42.5648 7.67045 43.2031 8.05341 43.969 8.05341C44.8626 8.05341 45.5009 7.79811 46.1391 7.15984C46.5221 6.77688 46.7774 6.26626 46.7774 5.628H43.969V4.73442H47.671C47.7986 4.73442 47.7986 4.98973 47.7986 5.11738Z" fill="#575A65"/>
<path d="M53.7984 1.92641H50.3518V4.35182H53.5431V5.2454H50.3518V7.67082H53.7984V8.56439H49.3306V1.03283H53.7984V1.92641Z" fill="#575A65"/>
<path d="M57.8823 8.56439H56.8611V1.92641H54.8186V1.03283H60.0524V1.92641H57.8823V8.56439Z" fill="#575A65"/>
<path d="M63.8881 8.56439V1.03283H64.9093V8.56439H63.8881Z" fill="#575A65"/>
<path d="M69.2481 8.56439H68.2269V1.92641H66.0568V1.03283H71.4182V1.92641H69.2481V8.56439Z" fill="#575A65"/>
<path d="M81.377 7.67045C80.611 8.43638 79.7175 8.81934 78.5686 8.81934C77.4197 8.81934 76.5261 8.43638 75.7602 7.67045C74.9943 6.90453 74.6113 6.01096 74.6113 4.86208C74.6113 3.71319 74.9943 2.81962 75.7602 2.0537C76.5261 1.28778 77.4197 0.904816 78.5686 0.904816C79.7175 0.904816 80.611 1.28778 81.377 2.0537C82.1429 2.81962 82.5258 3.71319 82.5258 4.86208C82.5258 5.8833 82.1429 6.90453 81.377 7.67045ZM76.3985 7.03219C76.9091 7.5428 77.675 7.92576 78.4409 7.92576C79.2069 7.92576 79.9728 7.67045 80.4834 7.03219C80.994 6.52157 81.377 5.75565 81.377 4.86208C81.377 3.9685 81.1217 3.20258 80.4834 2.69197C79.9728 2.18135 79.2069 1.79839 78.4409 1.79839C77.675 1.79839 76.9091 2.0537 76.3985 2.69197C75.8879 3.20258 75.5049 3.9685 75.5049 4.86208C75.6326 5.75565 75.8879 6.39392 76.3985 7.03219Z" fill="#575A65"/>
<path d="M83.9276 8.56439V1.03283H85.0765L88.7784 6.9049V5.50071V1.03283H89.7997V8.56439H88.7784L84.8212 2.43702V3.84121V8.56439H83.9276Z" fill="#575A65"/>
<path d="M74.61 19.6711C71.5463 19.6711 69.1209 21.9688 69.1209 25.0325C69.1209 28.0962 71.5463 30.394 74.61 30.394C77.6737 30.394 80.0991 28.0962 80.0991 25.0325C80.0991 21.9688 77.6737 19.6711 74.61 19.6711ZM74.61 28.3515C72.9505 28.3515 71.5463 26.9473 71.5463 25.0325C71.5463 23.1177 72.9505 21.7135 74.61 21.7135C76.2695 21.7135 77.6737 22.9901 77.6737 25.0325C77.6737 26.9473 76.2695 28.3515 74.61 28.3515ZM62.7382 19.6711C59.6745 19.6711 57.2491 21.9688 57.2491 25.0325C57.2491 28.0962 59.6745 30.394 62.7382 30.394C65.8019 30.394 68.2273 28.0962 68.2273 25.0325C68.0997 21.9688 65.6743 19.6711 62.7382 19.6711ZM62.7382 28.3515C61.0787 28.3515 59.6745 26.9473 59.6745 25.0325C59.6745 23.1177 61.0787 21.7135 62.7382 21.7135C64.3977 21.7135 65.8019 22.9901 65.8019 25.0325C65.8019 26.9473 64.3977 28.3515 62.7382 28.3515ZM48.5687 21.3306V23.6283H54.0578C53.9301 24.9049 53.4195 25.7984 52.7813 26.4367C52.0153 27.2026 50.7388 28.0962 48.5687 28.0962C45.122 28.0962 42.569 25.4155 42.569 21.9688C42.569 18.5222 45.2497 15.8415 48.5687 15.8415C50.3558 15.8415 51.76 16.6074 52.7813 17.501L54.4408 15.8415C53.0366 14.5649 51.2494 13.5437 48.6963 13.5437C43.9732 13.5437 40.1436 17.2457 40.1436 21.8412C40.1436 26.4367 44.1008 30.1387 48.6963 30.1387C51.2494 30.1387 53.1642 29.3727 54.5684 27.8409C56.1002 26.3091 56.6109 24.2666 56.6109 22.4795C56.6109 21.9688 56.6109 21.4582 56.4832 21.0753C56.2279 21.3306 48.5687 21.3306 48.5687 21.3306ZM106.523 23.1177C106.013 21.9688 104.736 19.6711 101.8 19.6711C98.9918 19.6711 96.6941 21.8412 96.6941 25.0325C96.6941 28.0962 98.9918 30.394 102.056 30.394C104.609 30.394 106.013 28.8621 106.651 27.9686L104.736 26.692C104.098 27.5856 103.332 28.2239 102.056 28.2239C100.907 28.2239 100.013 27.7133 99.3748 26.5644L106.651 23.6283C106.779 23.756 106.523 23.1177 106.523 23.1177ZM99.1195 24.9049C99.1195 22.8624 100.779 21.7135 101.928 21.7135C102.821 21.7135 103.715 22.2241 103.97 22.8624L99.1195 24.9049ZM93.1198 30.1387H95.5452V14.3096H93.1198V30.1387ZM89.2902 20.82C88.6519 20.1817 87.6307 19.6711 86.3541 19.6711C83.6734 19.6711 81.1203 22.0965 81.1203 25.0325C81.1203 28.0962 83.6734 30.394 86.3541 30.394C87.6307 30.394 88.6519 29.8834 89.1625 29.1174H89.2902V29.8834C89.2902 31.9258 88.1413 33.0747 86.3541 33.0747C84.95 33.0747 83.9287 32.0535 83.6734 31.1599L81.631 32.0535C82.2692 33.4577 83.8011 35.2448 86.4818 35.2448C89.2902 35.2448 91.7156 33.5853 91.7156 29.6281V19.9264H89.4178L89.2902 20.82ZM86.4818 28.3515C84.8223 28.3515 83.4181 26.9473 83.4181 25.1602C83.4181 23.2454 84.8223 21.8412 86.4818 21.8412C88.1413 21.8412 89.4178 23.2454 89.4178 25.1602C89.4178 26.9473 88.1413 28.3515 86.4818 28.3515ZM117.629 14.3096H111.885V30.1387H114.31V24.1389H117.629C120.31 24.1389 122.863 22.2241 122.863 19.2881C122.991 16.2244 120.31 14.3096 117.629 14.3096ZM117.757 21.9688H114.31V16.4797H117.757C119.544 16.4797 120.565 17.8839 120.565 19.1605C120.565 20.437 119.544 21.9688 117.757 21.9688ZM132.565 19.6711C130.778 19.6711 128.99 20.437 128.352 22.0965L130.522 22.9901C131.033 22.0965 131.799 21.8412 132.692 21.8412C133.969 21.8412 135.245 22.6071 135.245 23.8836V24.0113C134.862 23.756 133.841 23.373 132.692 23.373C130.395 23.373 128.097 24.6496 128.097 26.9473C128.097 29.1174 130.012 30.394 132.054 30.394C133.714 30.394 134.607 29.628 135.118 28.8621H135.245V30.1387H137.543V24.0113C137.416 21.2029 135.245 19.6711 132.565 19.6711ZM132.182 28.3515C131.416 28.3515 130.267 27.9686 130.267 27.075C130.267 25.7984 131.671 25.4155 132.82 25.4155C133.841 25.4155 134.352 25.6708 134.99 25.9261C134.862 27.3303 133.586 28.3515 132.182 28.3515ZM145.713 20.054L143.032 26.9473H142.905L140.096 20.054H137.543L141.756 29.6281L139.33 34.9895H141.883L148.394 20.054H145.713ZM124.267 30.1387H126.693V14.3096H124.267V30.1387Z" fill="#575A65"/>
<path d="M0.747978 1.99219C0.367599 2.37257 0.114014 3.00653 0.114014 3.76728V31.5349C0.114014 32.2957 0.367599 32.9296 0.747978 33.31L0.874771 33.4368L16.5971 17.8413V17.4609L0.747978 1.99219Z" fill="url(#paint0_linear_1361_1668)"/>
<path d="M21.7958 23.0396L16.5973 17.8411V17.4607L21.7958 12.2622L21.9226 12.389L28.1354 15.9392C29.9105 16.9535 29.9105 18.6019 28.1354 19.6162L21.7958 23.0396C21.9226 23.0396 21.7958 23.0396 21.7958 23.0396Z" fill="url(#paint1_linear_1361_1668)"/>
<path d="M21.9227 23.039L16.5974 17.7137L0.748291 33.3093C1.38226 33.9432 2.26981 33.9432 3.41094 33.4361L21.9227 23.039Z" fill="url(#paint2_linear_1361_1668)"/>
<path d="M21.9227 12.3892L3.41094 1.99218C2.26981 1.35822 1.38226 1.48501 0.748291 2.11897L16.5974 17.7145L21.9227 12.3892Z" fill="url(#paint3_linear_1361_1668)"/>
<defs>
<linearGradient id="paint0_linear_1361_1668" x1="15.1774" y1="31.8151" x2="-5.90212" y2="10.4865" gradientUnits="userSpaceOnUse">
<stop stop-color="#00A0FF"/>
<stop offset="0.0066" stop-color="#00A1FF"/>
<stop offset="0.2601" stop-color="#00BEFF"/>
<stop offset="0.5122" stop-color="#00D2FF"/>
<stop offset="0.7604" stop-color="#00DFFF"/>
<stop offset="1" stop-color="#00E3FF"/>
</linearGradient>
<linearGradient id="paint1_linear_1361_1668" x1="30.4375" y1="17.6508" x2="-0.316034" y2="17.6508" gradientUnits="userSpaceOnUse">
<stop stop-color="#FFE000"/>
<stop offset="0.4087" stop-color="#FFBD00"/>
<stop offset="0.7754" stop-color="#FFA500"/>
<stop offset="1" stop-color="#FF9C00"/>
</linearGradient>
<linearGradient id="paint2_linear_1361_1668" x1="8.40371" y1="25.2455" x2="-20.1819" y2="-3.67766" gradientUnits="userSpaceOnUse">
<stop stop-color="#FF3A44"/>
<stop offset="1" stop-color="#C31162"/>
</linearGradient>
<linearGradient id="paint3_linear_1361_1668" x1="-13.8281" y1="32.1548" x2="-1.06339" y2="19.2393" gradientUnits="userSpaceOnUse">
<stop stop-color="#32A071"/>
<stop offset="0.0685" stop-color="#2DA771"/>
<stop offset="0.4762" stop-color="#15CF74"/>
<stop offset="0.8009" stop-color="#06E775"/>
<stop offset="1" stop-color="#00F076"/>
</linearGradient>
</defs>
</svg>
