<svg width="40" height="40" viewBox="0 0 40 40" fill="none" xmlns="http://www.w3.org/2000/svg">
<path d="M20 40C31.0457 40 40 31.0457 40 20C40 8.95431 31.0457 0 20 0C8.95431 0 0 8.95431 0 20C0 31.0457 8.95431 40 20 40Z" fill="white"/>
<path d="M31 13.1161C30.1819 13.475 29.3101 13.7129 28.4012 13.8284C29.3363 13.2701 30.0499 12.3929 30.3854 11.3355C29.5136 11.8552 28.5511 12.2224 27.5254 12.4273C26.6976 11.5459 25.5179 11 24.2309 11C21.7339 11 19.7236 13.0268 19.7236 15.5114C19.7236 15.8689 19.7539 16.2126 19.8281 16.5399C16.0785 16.357 12.7606 14.5599 10.5317 11.8223C10.1426 12.4974 9.91438 13.2701 9.91438 14.102C9.91438 15.664 10.7188 17.0486 11.9177 17.8502C11.1931 17.8365 10.4822 17.6261 9.88 17.2948C9.88 17.3085 9.88 17.3264 9.88 17.3442C9.88 19.536 11.4434 21.3565 13.4935 21.7759C13.1264 21.8763 12.7262 21.9244 12.311 21.9244C12.0222 21.9244 11.7307 21.9079 11.4571 21.8474C12.0415 23.6335 13.6998 24.9466 15.6715 24.9893C14.137 26.1896 12.1886 26.9129 10.0794 26.9129C9.7095 26.9129 9.35475 26.8964 9 26.851C10.9979 28.1394 13.3656 28.875 15.919 28.875C24.2185 28.875 28.756 22 28.756 16.0408C28.756 15.8414 28.7491 15.6489 28.7395 15.4578C29.6346 14.8225 30.3867 14.0291 31 13.1161Z" fill="#1976D2"/>
</svg>
