<svg width="50" height="52" viewBox="0 0 50 52" fill="none" xmlns="http://www.w3.org/2000/svg">
<path d="M39.1897 10.8093C50.3428 21.9594 53.3565 37.0278 45.9216 44.4597C38.4866 51.8946 23.4213 48.8809 12.2697 37.7308C11.8909 37.352 11.5455 36.9581 11.1849 36.5702L17.8774 29.8777C26.5502 38.5505 37.5988 41.5657 42.5533 36.6081C47.5094 31.652 44.4958 20.6034 35.8245 11.9306L35.8578 11.9624L35.826 11.929C25.9153 2.01683 12.3546 -0.493798 5.54088 6.3199C2.24539 9.61539 1.15144 14.4912 1.99842 19.764C0.698406 13.5775 1.77114 7.84567 5.54088 4.07746C12.9743 -3.35595 28.0396 -0.342281 39.1897 10.8093Z" fill="#FDD888"/>
<path d="M24.8531 51.5158C24.4713 51.5158 24.091 51.3991 23.7637 51.1658L16.0727 45.6491L8.38174 51.1658C7.72567 51.6355 6.84688 51.6355 6.19535 51.1582C5.54383 50.6855 5.26959 49.8491 5.51353 49.084L8.38325 39.8263L0.760455 34.455C0.111964 33.9778 -0.15622 33.1384 0.0907516 32.3717C0.340754 31.608 1.05137 31.0883 1.85592 31.0823L11.1696 31.0641L14.3015 22.0383C14.556 21.2746 15.2697 20.7595 16.0742 20.7595C16.8788 20.7595 17.5924 21.2746 17.847 22.0383L20.6743 31.0641L30.291 31.0823C31.0971 31.0883 31.8092 31.608 32.0562 32.3717C32.3047 33.1384 32.035 33.9778 31.3865 34.455L23.7637 39.8263L26.6319 49.084C26.8774 49.8491 26.6001 50.687 25.9516 51.1582C25.6228 51.3976 25.238 51.5158 24.8531 51.5158Z" fill="#FFAC33"/>
</svg>
