<svg width="50" height="50" viewBox="0 0 50 50" fill="none" xmlns="http://www.w3.org/2000/svg">
<path d="M23.6111 50C36.6512 50 47.2222 39.4289 47.2222 26.3889C47.2222 13.3488 36.6512 2.77777 23.6111 2.77777C10.5711 2.77777 0 13.3488 0 26.3889C0 39.4289 10.5711 50 23.6111 50Z" fill="#FFCC4D"/>
<path d="M24.9985 39.5833C26.5326 39.5833 27.7763 38.0288 27.7763 36.1111C27.7763 34.1935 26.5326 32.6389 24.9985 32.6389C23.4644 32.6389 22.2207 34.1935 22.2207 36.1111C22.2207 38.0288 23.4644 39.5833 24.9985 39.5833Z" fill="#664500"/>
<path d="M11.2657 29.6986C11.0129 29.6986 10.7559 29.6292 10.5268 29.4847C9.87816 29.0764 9.68371 28.2195 10.092 27.5695C11.3643 25.5514 15.2323 22.1 20.7726 23.4556C21.517 23.6375 21.9726 24.3903 21.7907 25.1347C21.6073 25.8792 20.8518 26.332 20.1115 26.1528C15.1059 24.9278 12.4698 29.0083 12.4434 29.05C12.1782 29.4695 11.7268 29.6986 11.2657 29.6986ZM27.8948 24.5014C27.492 24.5014 27.0948 24.3278 26.8198 23.9931C26.3337 23.4 26.4198 22.5236 27.0143 22.0375C31.4254 18.4208 36.4059 19.8681 38.424 21.1403C39.0726 21.5486 39.267 22.407 38.8573 23.0556C38.4504 23.7014 37.5962 23.8986 36.9462 23.4931C36.7545 23.3764 32.7073 20.9611 28.774 24.1861C28.5157 24.3986 28.2045 24.5014 27.8948 24.5014Z" fill="#664500"/>
<path d="M18.5363 43.4347C18.4418 43.4347 18.346 43.4222 18.2516 43.3958C17.6988 43.2389 17.3766 42.6639 17.5335 42.1097C18.1404 39.9708 17.8918 37.9028 16.8529 36.4347C16.1627 35.4597 15.1793 34.8639 14.1543 34.7986C13.5793 34.7639 13.1432 34.268 13.1793 33.6944C13.2154 33.1208 13.7085 32.6514 14.2835 32.7208C15.9404 32.8236 17.496 33.7389 18.5516 35.2305C19.9557 37.2153 20.3154 39.9292 19.5363 42.6764C19.4071 43.1361 18.9891 43.4347 18.5363 43.4347ZM33.8654 39.1833C33.6682 39.1833 33.4696 39.1278 33.2932 39.0111C31.6724 37.9417 30.7654 36.0708 30.8043 33.8792C30.8446 31.6083 31.9279 29.5 33.5599 28.5055C34.0502 28.2055 34.6904 28.3611 34.9904 28.8542C35.2904 29.3458 35.1349 29.9847 34.6418 30.2847C33.621 30.9069 32.9141 32.3667 32.8863 33.9153C32.8585 35.3805 33.4266 36.6042 34.4391 37.2722C34.9196 37.5889 35.0516 38.2347 34.7349 38.7153C34.5349 39.0194 34.2043 39.1833 33.8654 39.1833Z" fill="#E2A62D"/>
<path d="M23.8597 3.77777C23.8 3.70971 23.7069 3.67221 23.5972 3.65138C23.5972 3.65138 1.48056 -0.547232 0.523618 0.297212C-0.431937 1.14305 1.02778 23.6083 1.02778 23.6083C1.03473 23.7208 1.05973 23.8167 1.12084 23.8847C1.95973 24.8347 7.72917 21.1014 14.0083 15.55C20.2889 9.99721 24.6986 4.72777 23.8597 3.77777Z" fill="#DD2E44"/>
<path d="M0.484907 0.376383C0.464073 0.41805 0.446018 0.474994 0.432129 0.547217C0.652962 2.45138 2.7863 18.1194 4.11546 23.0167C6.10991 21.9014 8.1363 20.3861 10.5169 18.4986C8.49463 14.7972 1.60852 0.202772 0.484907 0.376383Z" fill="#EA596E"/>
<path d="M41.5308 40.5958L26.8461 38.7861C25.2766 38.6444 22.5169 38.6306 22.6586 36.1444C22.7877 33.8903 25.4919 34.2375 27.4905 34.5333L42.2655 36.9972L41.5308 40.5958Z" fill="#3B88C3"/>
<path d="M42.2638 36.9986L36.4 35.993C35.7138 35.8694 35.1027 36.8916 35.0722 37.9736C35.0375 39.1764 35.3875 39.7847 36.0805 39.9264L41.8361 40.6375L42.2638 36.9986Z" fill="#88C9F9"/>
<path d="M48.4971 36.5847L44.8554 39.9333L38.3457 32.8542L41.9874 29.5056C43.8776 27.7667 46.8471 27.8917 48.586 29.7819L48.7735 29.9861C50.511 31.8778 50.3874 34.8458 48.4971 36.5847Z" fill="#3B88C3"/>
<path d="M44.8532 39.9353C46.4173 38.4971 46.2282 35.7466 44.4308 33.7917C42.6334 31.8369 39.9084 31.418 38.3443 32.8561C36.7802 34.2942 36.9693 37.0448 38.7667 38.9996C40.5641 40.9545 43.2891 41.3734 44.8532 39.9353Z" fill="#88C9F9"/>
<path d="M43.5515 38.5192C44.3335 37.8001 44.0934 36.2665 43.015 35.0937C41.9367 33.9209 40.4286 33.553 39.6465 34.2721C38.8644 34.9912 39.1046 36.5248 40.183 37.6976C41.2613 38.8704 42.7694 39.2382 43.5515 38.5192Z" fill="#226699"/>
<path d="M3.47201 48.6111C4.6226 48.6111 5.55534 47.6784 5.55534 46.5278C5.55534 45.3772 4.6226 44.4444 3.47201 44.4444C2.32141 44.4444 1.38867 45.3772 1.38867 46.5278C1.38867 47.6784 2.32141 48.6111 3.47201 48.6111Z" fill="#55ACEE"/>
<path d="M40.2778 5.55556C41.8119 5.55556 43.0556 4.3119 43.0556 2.77778C43.0556 1.24365 41.8119 0 40.2778 0C38.7437 0 37.5 1.24365 37.5 2.77778C37.5 4.3119 38.7437 5.55556 40.2778 5.55556Z" fill="#55ACEE"/>
<path d="M6.7556 40.6194L3.50838 32.8194L0.572266 41.2153L6.7556 40.6194ZM36.1112 6.94444L30.5556 8.33333L31.9445 2.77777L36.1112 6.94444Z" fill="#EA596E"/>
<path d="M44.4429 18.0556L49.9998 11.1097L45.8331 8.33334L44.4429 18.0556Z" fill="#77B255"/>
</svg>
