<svg width="50" height="51" viewBox="0 0 50 51" fill="none" xmlns="http://www.w3.org/2000/svg">
<path d="M30.5556 0L25 11.15L18.0556 4.18056V13.9361L4.16667 11.15L15.2778 22.3L0 30.6611H16.6667L8.33333 47.3861L25 36.2361L40.2778 50.1736L36.1111 30.6611H50L38.8889 22.2986L50 9.75556L33.3333 13.9361L30.5556 0Z" fill="#BB1A34"/>
<path d="M31.8249 17.95L34.4082 17.3014L41.6665 15.4805L36.9707 20.7805L35.1388 22.85L37.3471 24.5097L41.4096 27.568H33.1901L33.8471 30.6486L36.0013 40.7319L27.8832 33.3264L26.4165 31.9875L24.7665 33.0916L17.4888 37.9611L20.8304 31.2555L22.6665 27.568H13.2832L18.504 24.7083L21.4832 23.0805L19.0846 20.6708L14.8568 16.4305L19.3304 17.3277L22.3665 17.9375V12.0639L24.3804 14.0847L26.8721 16.5833L28.4457 13.4222L30.2138 9.87219" fill="#FCAB40"/>
<path d="M29.8777 19.8625L30.943 19.5945L33.9402 18.8431L32.0013 21.032L31.2444 21.8861L32.1555 22.5709L33.8333 23.8334H30.4402L30.7111 25.1056L31.6013 29.2681L28.2499 26.2111L27.643 25.6584L26.9624 26.1139L23.9583 28.125L25.3374 25.3556L26.0958 23.8334H22.2222L24.3791 22.6528L25.6083 21.9806L24.618 20.9861L22.8722 19.2347L24.718 19.6056L25.9722 19.857V17.4334L26.8041 18.2667L27.8319 19.2986L28.4819 17.9945L29.2111 16.5278" fill="#F5F8FA"/>
</svg>
