<svg width="200" height="60" viewBox="0 0 200 60" fill="none" xmlns="http://www.w3.org/2000/svg">
<g clip-path="url(#clip0_1211_932)">
<path d="M184.073 0.0371723H15.9357C15.3229 0.0371723 14.7173 0.0371723 14.1061 0.0401352C13.5944 0.0430982 13.0868 0.0517056 12.5702 0.05895C11.4479 0.0706564 10.3283 0.158174 9.22098 0.320743C8.11526 0.48685 7.04417 0.80001 6.04395 1.24963C5.04496 1.70306 4.13214 2.29224 3.33863 2.99579C2.54095 3.69738 1.87602 4.50831 1.36942 5.39741C0.861412 6.28474 0.50916 7.2356 0.324826 8.21714C0.13874 9.19745 0.0386054 10.1891 0.0253209 11.1831C0.0098108 11.6373 0.00817288 12.093 0 12.5473V46.7906C0.00817288 47.2507 0.0098108 47.6963 0.0253209 48.1564C0.0386094 49.1504 0.138744 50.142 0.324826 51.1222C0.50865 52.1043 0.860924 53.0557 1.36942 53.9434C1.87579 54.8296 2.54081 55.6373 3.33863 56.3349C4.12913 57.0416 5.04254 57.6312 6.04395 58.0812C7.04417 58.532 8.11514 58.847 9.22098 59.0157C10.3284 59.177 11.448 59.2645 12.5702 59.2776C13.0868 59.2877 13.5944 59.2935 14.1061 59.2935C14.7173 59.2964 15.3229 59.2964 15.9357 59.2964H184.073C184.674 59.2964 185.284 59.2964 185.885 59.2935C186.394 59.2935 186.917 59.2877 187.426 59.2776C188.546 59.2652 189.663 59.1776 190.768 59.0157C191.878 58.8458 192.953 58.5309 193.958 58.0812C194.958 57.631 195.871 57.0414 196.661 56.3349C197.456 55.6345 198.123 54.8275 198.635 53.9434C199.14 53.0551 199.489 52.1038 199.67 51.1222C199.857 50.1418 199.96 49.1505 199.98 48.1564C199.987 47.6963 199.987 47.2507 199.987 46.7906C200 46.2524 200 45.7172 200 45.1702V14.1648C200 13.6222 200 13.084 199.987 12.5473C199.987 12.093 199.987 11.6373 199.98 11.183C199.96 10.1889 199.857 9.19752 199.67 8.21708C199.489 7.23611 199.14 6.28533 198.635 5.39735C197.604 3.61524 195.968 2.16462 193.958 1.2495C192.953 0.800976 191.878 0.487899 190.768 0.320609C189.663 0.157325 188.546 0.0697764 187.426 0.0587426C186.917 0.051513 186.394 0.0428315 185.885 0.0399426C185.284 0.0369797 184.674 0.0369797 184.073 0.0369797V0.0371723Z" fill="#A6A6A6"/>
<path d="M13.9704 58.0045C13.4603 58.0045 12.9626 57.9987 12.4565 57.9886C11.408 57.9765 10.362 57.8957 9.32708 57.7469C8.36203 57.5998 7.42717 57.3262 6.55331 56.9351C5.68747 56.5472 4.89775 56.0385 4.21441 55.4287C3.52117 54.826 2.94403 54.127 2.50584 53.3593C2.06282 52.5867 1.75622 51.7586 1.59673 50.9037C1.42449 49.9852 1.3313 49.0564 1.31797 48.1254C1.30735 47.8129 1.29346 46.7723 1.29346 46.7723V12.5421C1.29346 12.5421 1.30826 11.5176 1.31805 11.2166C1.33082 10.2871 1.42346 9.35971 1.59519 8.4426C1.75497 7.58541 2.06181 6.75486 2.50507 5.97971C2.94165 5.21261 3.51559 4.51308 4.20465 3.90824C4.89293 3.29766 5.68517 2.78641 6.55249 2.39316C7.42434 2.00327 8.35744 1.73157 9.32053 1.58715C10.3589 1.43685 11.4085 1.35558 12.4606 1.34405L13.9713 1.32595H186.03L187.558 1.34477C188.601 1.35574 189.641 1.43627 190.67 1.5857C191.643 1.73193 192.586 2.00553 193.467 2.3975C195.205 3.19003 196.619 4.44388 197.511 5.98333C197.947 6.75313 198.249 7.5769 198.407 8.42668C198.58 9.35132 198.678 10.286 198.698 11.2231C198.702 11.6428 198.702 12.0935 198.702 12.5421C198.716 13.0978 198.716 13.6267 198.716 14.1599V45.1719C198.716 45.7102 198.716 46.2355 198.702 46.7651C198.702 47.247 198.702 47.6884 198.696 48.1427C198.676 49.0632 198.581 49.9811 198.41 50.8892C198.254 51.7502 197.949 52.5848 197.506 53.3638C197.064 54.1231 196.491 54.816 195.805 55.4171C195.121 56.0303 194.33 56.5419 193.462 56.9322C192.583 57.3264 191.642 57.601 190.67 57.7469C189.635 57.8965 188.589 57.9773 187.54 57.9886C187.05 57.9987 186.536 58.0045 186.038 58.0045L184.223 58.0074L13.9704 58.0045Z" fill="black"/>
<path d="M48.5884 30.112C48.6044 28.8755 48.9328 27.6631 49.5432 26.5876C50.1536 25.5121 51.0262 24.6085 52.0796 23.9608C51.4104 23.0051 50.5275 22.2185 49.5011 21.6636C48.4747 21.1087 47.333 20.8008 46.1668 20.7643C43.6791 20.5032 41.2673 22.2529 39.9996 22.2529C38.7073 22.2529 36.7555 20.7902 34.6536 20.8335C33.2941 20.8774 31.9692 21.2727 30.8079 21.981C29.6466 22.6892 28.6885 23.6862 28.0271 24.8747C25.1619 29.8354 27.2991 37.1258 30.0437 41.1356C31.4169 43.0991 33.0217 45.2923 35.1216 45.2146C37.1766 45.1293 37.944 43.9042 40.4245 43.9042C42.8819 43.9042 43.6019 45.2146 45.7445 45.1651C47.9495 45.1293 49.3387 43.1929 50.6637 41.2108C51.6504 39.8118 52.4096 38.2655 52.9132 36.6293C51.6322 36.0875 50.539 35.1806 49.7699 34.0216C49.0008 32.8627 48.5899 31.503 48.5884 30.112Z" fill="white"/>
<path d="M44.5416 18.1272C45.7439 16.6839 46.3362 14.8288 46.1928 12.9559C44.356 13.1488 42.6593 14.0267 41.4408 15.4146C40.8451 16.0926 40.3888 16.8814 40.098 17.7359C39.8073 18.5903 39.6878 19.4937 39.7464 20.3944C40.6652 20.4039 41.5741 20.2047 42.4047 19.812C43.2353 19.4193 43.9659 18.8432 44.5416 18.1272Z" fill="white"/>
<path d="M74.5636 40.2439H67.5512L65.8672 45.2164H62.897L69.539 26.8194H72.625L79.267 45.2164H76.2462L74.5636 40.2439ZM68.2775 37.9493H73.836L71.0958 29.8793H71.0191L68.2775 37.9493Z" fill="white"/>
<path d="M93.6117 38.5107C93.6117 42.6788 91.3807 45.3567 88.0141 45.3567C87.1613 45.4014 86.3132 45.2049 85.5668 44.7899C84.8204 44.3749 84.206 43.7581 83.7939 43.0101H83.7302V49.6536H80.9771V31.8035H83.642V34.0344H83.6927C84.1237 33.29 84.7485 32.6764 85.5005 32.2588C86.2526 31.8413 87.1038 31.6354 87.9635 31.6632C91.3677 31.6632 93.6117 34.3541 93.6117 38.5107ZM90.7818 38.5107C90.7818 35.7951 89.3784 34.0098 87.2372 34.0098C85.1336 34.0098 83.7187 35.8327 83.7187 38.5107C83.7187 41.2132 85.1336 43.0231 87.2372 43.0231C89.3784 43.0231 90.7818 41.2508 90.7818 38.5107Z" fill="white"/>
<path d="M108.374 38.5107C108.374 42.6788 106.143 45.3567 102.777 45.3567C101.924 45.4014 101.076 45.2049 100.33 44.7899C99.5831 44.3749 98.9687 43.7581 98.5566 43.0101H98.4929V49.6536H95.7397V31.8035H98.4047V34.0344H98.4553C98.8864 33.29 99.5111 32.6764 100.263 32.2588C101.015 31.8413 101.866 31.6354 102.726 31.6632C106.13 31.6632 108.374 34.3541 108.374 38.5107ZM105.544 38.5107C105.544 35.7951 104.141 34.0098 102 34.0098C99.8963 34.0098 98.4814 35.8327 98.4814 38.5107C98.4814 41.2132 99.8963 43.0231 102 43.0231C104.141 43.0231 105.544 41.2508 105.544 38.5107H105.544Z" fill="white"/>
<path d="M118.131 40.0905C118.335 41.9149 120.108 43.1127 122.529 43.1127C124.85 43.1127 126.52 41.9148 126.52 40.2699C126.52 38.8419 125.513 37.9869 123.128 37.4009L120.744 36.8266C117.366 36.0106 115.798 34.4307 115.798 31.8671C115.798 28.6929 118.564 26.5126 122.492 26.5126C126.379 26.5126 129.044 28.6929 129.134 31.8671H126.355C126.188 30.0311 124.671 28.9229 122.453 28.9229C120.235 28.9229 118.717 30.0442 118.717 31.6761C118.717 32.9767 119.687 33.7421 122.058 34.328L124.085 34.8256C127.859 35.7183 129.428 37.2345 129.428 39.9255C129.428 43.3673 126.686 45.523 122.325 45.523C118.246 45.523 115.491 43.4179 115.313 40.0904L118.131 40.0905Z" fill="white"/>
<path d="M135.369 28.6293V31.8035H137.92V33.9837H135.369V41.3781C135.369 42.5268 135.88 43.0622 137.001 43.0622C137.304 43.0569 137.606 43.0356 137.907 42.9984V45.1657C137.403 45.2599 136.89 45.3025 136.378 45.293C133.662 45.293 132.603 44.273 132.603 41.6718V33.9837H130.653V31.8035H132.603V28.6293H135.369Z" fill="white"/>
<path d="M139.397 38.5106C139.397 34.2905 141.883 31.6385 145.759 31.6385C149.648 31.6385 152.122 34.2904 152.122 38.5106C152.122 42.7424 149.661 45.3828 145.759 45.3828C141.858 45.3828 139.397 42.7424 139.397 38.5106ZM149.316 38.5106C149.316 35.6157 147.99 33.9071 145.759 33.9071C143.528 33.9071 142.203 35.6287 142.203 38.5106C142.203 41.4172 143.528 43.1128 145.759 43.1128C147.99 43.1128 149.316 41.4172 149.316 38.5106H149.316Z" fill="white"/>
<path d="M154.392 31.8035H157.017V34.0864H157.081C157.259 33.3734 157.677 32.7433 158.264 32.302C158.852 31.8607 159.573 31.6351 160.307 31.6631C160.625 31.662 160.941 31.6965 161.251 31.7658V34.3411C160.85 34.2187 160.432 34.1625 160.014 34.1747C159.614 34.1585 159.215 34.229 158.845 34.3814C158.475 34.5338 158.142 34.7646 157.869 35.0577C157.597 35.3509 157.391 35.6996 157.266 36.0798C157.141 36.4601 157.099 36.8629 157.145 37.2606V45.2164H154.392L154.392 31.8035Z" fill="white"/>
<path d="M173.944 41.2768C173.574 43.7117 171.203 45.3827 168.169 45.3827C164.267 45.3827 161.845 42.7684 161.845 38.5743C161.845 34.3671 164.28 31.6385 168.053 31.6385C171.764 31.6385 174.098 34.1877 174.098 38.2546V39.1978H164.624V39.3642C164.581 39.8578 164.643 40.3551 164.806 40.823C164.969 41.291 165.23 41.7188 165.571 42.0781C165.912 42.4374 166.326 42.72 166.785 42.9072C167.244 43.0943 167.737 43.1816 168.233 43.1634C168.883 43.2244 169.536 43.0737 170.094 42.7338C170.652 42.3939 171.086 41.8829 171.33 41.2768L173.944 41.2768ZM164.637 37.2737H171.343C171.368 36.8298 171.301 36.3856 171.146 35.969C170.99 35.5524 170.751 35.1724 170.442 34.8527C170.133 34.5331 169.761 34.2807 169.35 34.1115C168.939 33.9423 168.498 33.8599 168.053 33.8694C167.605 33.8668 167.16 33.9529 166.746 34.1229C166.331 34.2929 165.954 34.5433 165.636 34.8598C165.318 35.1763 165.067 35.5526 164.895 35.9669C164.724 36.3812 164.636 36.8253 164.637 37.2737V37.2737Z" fill="white"/>
<path d="M67.9327 12.9718C68.5099 12.9304 69.0891 13.0176 69.6286 13.2271C70.168 13.4367 70.6542 13.7633 71.0521 14.1835C71.45 14.6037 71.7497 15.1069 71.9296 15.657C72.1094 16.207 72.165 16.7901 72.0922 17.3642C72.0922 20.1883 70.5658 21.8116 67.9327 21.8116H64.7397V12.9718H67.9327ZM66.1127 20.5615H67.7794C68.1918 20.5861 68.6046 20.5185 68.9876 20.3635C69.3706 20.2085 69.7143 19.9701 69.9935 19.6655C70.2728 19.361 70.4806 18.998 70.6019 18.603C70.7232 18.208 70.7548 17.791 70.6946 17.3822C70.7505 16.975 70.7156 16.5606 70.5924 16.1685C70.4693 15.7764 70.261 15.4164 69.9823 15.1142C69.7037 14.8121 69.3617 14.5754 68.9809 14.4209C68.6 14.2665 68.1897 14.1983 67.7794 14.221H66.1127V20.5615Z" fill="white"/>
<path d="M73.6433 18.4731C73.6014 18.0347 73.6515 17.5924 73.7905 17.1745C73.9296 16.7566 74.1544 16.3724 74.4506 16.0465C74.7468 15.7206 75.1079 15.4602 75.5106 15.282C75.9133 15.1038 76.3489 15.0118 76.7893 15.0118C77.2297 15.0118 77.6652 15.1038 78.068 15.282C78.4707 15.4602 78.8318 15.7206 79.128 16.0465C79.4242 16.3724 79.649 16.7566 79.788 17.1745C79.927 17.5924 79.9772 18.0347 79.9353 18.4731C79.978 18.9119 79.9284 19.3549 79.7898 19.7734C79.6511 20.192 79.4264 20.5769 79.1301 20.9034C78.8339 21.23 78.4725 21.4909 78.0694 21.6695C77.6662 21.8481 77.2302 21.9403 76.7893 21.9403C76.3484 21.9403 75.9123 21.8481 75.5092 21.6695C75.106 21.4909 74.7447 21.23 74.4484 20.9034C74.1521 20.5769 73.9274 20.192 73.7888 19.7734C73.6501 19.3549 73.6006 18.9119 73.6433 18.4731ZM78.5811 18.4731C78.5811 17.0271 77.9315 16.1814 76.7914 16.1814C75.6471 16.1814 75.0033 17.0271 75.0033 18.4731C75.0033 19.9307 75.6471 20.7698 76.7914 20.7698C77.9315 20.7698 78.5811 19.9249 78.5811 18.4731H78.5811Z" fill="white"/>
<path d="M88.2989 21.8114H86.9332L85.5544 16.8982H85.4503L84.0773 21.8114H82.7246L80.8857 15.1404H82.2211L83.4161 20.2308H83.5145L84.886 15.1404H86.1491L87.5206 20.2308H87.6248L88.814 15.1404H90.1305L88.2989 21.8114Z" fill="white"/>
<path d="M91.6768 15.1404H92.9441V16.2002H93.0425C93.2094 15.8196 93.4909 15.5005 93.8477 15.2875C94.2046 15.0744 94.619 14.978 95.0332 15.0117C95.3578 14.9873 95.6838 15.0362 95.9869 15.1549C96.29 15.2735 96.5625 15.4589 96.7843 15.6972C97.006 15.9355 97.1713 16.2206 97.2679 16.5314C97.3645 16.8423 97.3899 17.1709 97.3423 17.4929V21.8114H96.0257V17.8235C96.0257 16.7514 95.5599 16.2183 94.5862 16.2183C94.3658 16.208 94.1458 16.2455 93.9413 16.3282C93.7368 16.411 93.5525 16.5369 93.4012 16.6975C93.2499 16.8581 93.1352 17.0494 93.0647 17.2585C92.9943 17.4676 92.97 17.6894 92.9933 17.9088V21.8115H91.6768L91.6768 15.1404Z" fill="white"/>
<path d="M99.4404 12.5363H100.757V21.8114H99.4404V12.5363Z" fill="white"/>
<path d="M102.587 18.4731C102.545 18.0346 102.595 17.5923 102.734 17.1744C102.873 16.7565 103.098 16.3723 103.395 16.0464C103.691 15.7205 104.052 15.4601 104.455 15.2819C104.857 15.1037 105.293 15.0116 105.733 15.0116C106.174 15.0116 106.609 15.1037 107.012 15.2819C107.415 15.4601 107.776 15.7205 108.072 16.0464C108.369 16.3723 108.593 16.7565 108.732 17.1744C108.872 17.5923 108.922 18.0346 108.88 18.4731C108.922 18.9119 108.873 19.3549 108.734 19.7734C108.595 20.192 108.371 20.5769 108.074 20.9034C107.778 21.2299 107.417 21.4909 107.014 21.6694C106.61 21.848 106.174 21.9402 105.733 21.9402C105.293 21.9402 104.856 21.848 104.453 21.6694C104.05 21.4909 103.689 21.2299 103.392 20.9034C103.096 20.5769 102.871 20.192 102.733 19.7734C102.594 19.3549 102.544 18.9119 102.587 18.4731ZM107.525 18.4731C107.525 17.027 106.875 16.1814 105.735 16.1814C104.591 16.1814 103.947 17.027 103.947 18.4731C103.947 19.9307 104.591 20.7698 105.735 20.7698C106.875 20.7698 107.525 19.9249 107.525 18.4731H107.525Z" fill="white"/>
<path d="M110.266 19.9249C110.266 18.7241 111.16 18.0318 112.747 17.9334L114.554 17.8292V17.2534C114.554 16.5489 114.088 16.151 113.188 16.151C112.453 16.151 111.944 16.4208 111.798 16.8925H110.523C110.658 15.7466 111.736 15.0117 113.249 15.0117C114.921 15.0117 115.865 15.8443 115.865 17.2534V21.8114H114.597V20.8739H114.493C114.282 21.2102 113.985 21.4844 113.633 21.6684C113.281 21.8524 112.886 21.9397 112.489 21.9214C112.209 21.9505 111.926 21.9206 111.658 21.8336C111.391 21.7467 111.144 21.6046 110.935 21.4165C110.725 21.2284 110.557 20.9984 110.442 20.7415C110.327 20.4846 110.267 20.2064 110.266 19.9249ZM114.554 19.3548V18.7971L112.925 18.9013C112.006 18.9628 111.589 19.2753 111.589 19.8634C111.589 20.4638 112.11 20.8132 112.826 20.8132C113.036 20.8344 113.248 20.8132 113.45 20.7509C113.651 20.6885 113.838 20.5863 113.999 20.4502C114.16 20.3141 114.293 20.147 114.388 19.9589C114.483 19.7707 114.54 19.5653 114.554 19.3548Z" fill="white"/>
<path d="M117.595 18.4731C117.595 16.3651 118.678 15.0298 120.364 15.0298C120.781 15.0106 121.195 15.1104 121.557 15.3177C121.919 15.5249 122.215 15.831 122.41 16.2001H122.508V12.5363H123.824V21.8114H122.563V20.7575H122.459C122.249 21.1241 121.943 21.4264 121.574 21.6315C121.204 21.8367 120.786 21.9369 120.364 21.9214C118.667 21.9214 117.595 20.5861 117.595 18.4731ZM118.955 18.4731C118.955 19.888 119.622 20.7394 120.737 20.7394C121.847 20.7394 122.533 19.8757 122.533 18.4789C122.533 17.0885 121.84 16.2125 120.737 16.2125C119.629 16.2125 118.955 17.0697 118.955 18.4731H118.955Z" fill="white"/>
<path d="M129.272 18.4731C129.23 18.0347 129.28 17.5924 129.419 17.1745C129.558 16.7566 129.783 16.3724 130.079 16.0465C130.375 15.7206 130.736 15.4602 131.139 15.282C131.542 15.1038 131.977 15.0118 132.418 15.0118C132.858 15.0118 133.294 15.1038 133.696 15.282C134.099 15.4602 134.46 15.7206 134.756 16.0465C135.053 16.3724 135.277 16.7566 135.416 17.1745C135.555 17.5924 135.606 18.0347 135.564 18.4731C135.606 18.9119 135.557 19.3549 135.418 19.7734C135.28 20.192 135.055 20.5769 134.759 20.9034C134.462 21.23 134.101 21.4909 133.698 21.6695C133.295 21.8481 132.859 21.9403 132.418 21.9403C131.977 21.9403 131.541 21.8481 131.138 21.6695C130.734 21.4909 130.373 21.23 130.077 20.9034C129.781 20.5769 129.556 20.192 129.417 19.7734C129.279 19.3549 129.229 18.9119 129.272 18.4731ZM134.209 18.4731C134.209 17.0271 133.56 16.1814 132.42 16.1814C131.275 16.1814 130.632 17.0271 130.632 18.4731C130.632 19.9307 131.276 20.7698 132.42 20.7698C133.56 20.7698 134.209 19.9249 134.209 18.4731Z" fill="white"/>
<path d="M137.33 15.1404H138.597V16.2002H138.696C138.863 15.8196 139.144 15.5005 139.501 15.2875C139.858 15.0744 140.272 14.978 140.687 15.0117C141.011 14.9873 141.337 15.0362 141.64 15.1549C141.943 15.2735 142.216 15.4589 142.438 15.6972C142.659 15.9355 142.825 16.2206 142.921 16.5314C143.018 16.8423 143.043 17.1709 142.996 17.4929V21.8114H141.679V17.8235C141.679 16.7514 141.213 16.2183 140.24 16.2183C140.019 16.208 139.799 16.2455 139.595 16.3282C139.39 16.411 139.206 16.5369 139.055 16.6975C138.903 16.8581 138.788 17.0494 138.718 17.2585C138.648 17.4676 138.623 17.6894 138.647 17.9088V21.8115H137.33V15.1404Z" fill="white"/>
<path d="M150.435 13.4796V15.1708H151.88V16.2798H150.435V19.71C150.435 20.4088 150.723 20.7148 151.378 20.7148C151.546 20.7143 151.714 20.7041 151.88 20.6844V21.781C151.644 21.8233 151.404 21.8458 151.164 21.8483C149.7 21.8483 149.117 21.3333 149.117 20.0471V16.2797H148.058V15.1708H149.117V13.4796H150.435Z" fill="white"/>
<path d="M153.679 12.5363H154.984V16.2125H155.088C155.263 15.8283 155.552 15.5074 155.916 15.2936C156.28 15.0797 156.701 14.9833 157.122 15.0175C157.445 14.9999 157.768 15.0538 158.067 15.1753C158.367 15.2969 158.636 15.4831 158.856 15.7206C159.075 15.9581 159.239 16.2412 159.337 16.5495C159.434 16.8579 159.462 17.1839 159.419 17.5044V21.8114H158.102V17.8292C158.102 16.7637 157.605 16.224 156.675 16.224C156.449 16.2055 156.221 16.2366 156.008 16.3152C155.795 16.3938 155.602 16.518 155.442 16.6791C155.282 16.8402 155.159 17.0343 155.082 17.2478C155.005 17.4613 154.975 17.6891 154.995 17.9153V21.8114H153.679L153.679 12.5363Z" fill="white"/>
<path d="M167.096 20.0102C166.917 20.6199 166.529 21.1473 166.001 21.5001C165.473 21.8529 164.837 22.0087 164.205 21.9402C163.766 21.9518 163.329 21.8676 162.925 21.6935C162.522 21.5194 162.161 21.2595 161.867 20.9319C161.574 20.6043 161.356 20.2168 161.227 19.7963C161.099 19.3758 161.064 18.9324 161.124 18.4969C161.065 18.06 161.101 17.6157 161.229 17.194C161.357 16.7722 161.575 16.3829 161.866 16.0525C162.158 15.722 162.517 15.458 162.92 15.2785C163.322 15.0989 163.759 15.0079 164.199 15.0117C166.056 15.0117 167.175 16.2798 167.175 18.3746V18.834H162.465V18.9078C162.444 19.1526 162.475 19.399 162.555 19.6312C162.635 19.8635 162.763 20.0764 162.93 20.2563C163.098 20.4362 163.301 20.5792 163.526 20.6761C163.752 20.773 163.996 20.8216 164.241 20.8189C164.556 20.8567 164.875 20.8 165.158 20.656C165.441 20.512 165.674 20.2872 165.829 20.0102L167.096 20.0102ZM162.465 17.8603H165.834C165.851 17.6364 165.82 17.4115 165.745 17.2001C165.669 16.9887 165.551 16.7954 165.396 16.6326C165.241 16.4699 165.054 16.3413 164.847 16.2551C164.64 16.1689 164.417 16.127 164.192 16.1322C163.964 16.1293 163.739 16.1721 163.528 16.2579C163.317 16.3438 163.125 16.471 162.964 16.632C162.803 16.7931 162.676 16.9847 162.59 17.1957C162.504 17.4066 162.462 17.6326 162.465 17.8603H162.465Z" fill="white"/>
</g>
<defs>
<clipPath id="clip0_1211_932">
<rect width="200" height="59.2593" fill="white" transform="translate(0 0.0371094)"/>
</clipPath>
</defs>
</svg>
