<svg width="200" height="60" viewBox="0 0 200 60" fill="none" xmlns="http://www.w3.org/2000/svg">
<g clip-path="url(#clip0_1211_911)">
<path d="M192.593 0.0371094H7.40741C3.31641 0.0371094 0 3.35352 0 7.44452V51.889C0 55.98 3.31641 59.2964 7.40741 59.2964H192.593C196.684 59.2964 200 55.98 200 51.889V7.44452C200 3.35352 196.684 0.0371094 192.593 0.0371094Z" fill="black"/>
<path d="M192.593 1.2222C194.242 1.2241 195.824 1.88031 196.99 3.04686C198.157 4.21341 198.813 5.79503 198.815 7.44472V51.8892C198.813 53.5388 198.157 55.1204 196.99 56.287C195.824 57.4535 194.242 58.1097 192.593 58.1117H7.40741C5.7577 58.1098 4.17612 57.4536 3.00963 56.287C1.84314 55.1205 1.18701 53.5389 1.18519 51.8892V7.44472C1.18698 5.795 1.8431 4.21337 3.0096 3.04682C4.17609 1.88027 5.7577 1.22407 7.40741 1.2222H192.593ZM192.593 0.0373077H7.40741C5.44461 0.0430531 3.56384 0.825319 2.17593 2.21323C0.788011 3.60115 0.00574533 5.48192 0 7.44472L0 51.8892C0.00574533 53.852 0.788011 55.7327 2.17593 57.1206C3.56384 58.5086 5.44461 59.2908 7.40741 59.2966H192.593C194.555 59.2908 196.436 58.5086 197.824 57.1206C199.212 55.7327 199.994 53.852 200 51.8892V7.44472C199.994 5.48192 199.212 3.60115 197.824 2.21323C196.436 0.825319 194.555 0.0430531 192.593 0.0373077Z" fill="#A6A6A6"/>
<path d="M70.2494 15.2124C70.2764 15.756 70.1924 16.2994 70.0026 16.8095C69.8128 17.3197 69.5212 17.7858 69.1454 18.1796C68.7244 18.6163 68.2159 18.9592 67.6532 19.1858C67.0905 19.4124 66.4863 19.5177 65.8801 19.4948C65.2701 19.5002 64.6651 19.3837 64.1007 19.152C63.5364 18.9203 63.024 18.5781 62.5938 18.1456C62.1635 17.7131 61.8241 17.1989 61.5954 16.6333C61.3668 16.0677 61.2535 15.4621 61.2622 14.8521C61.2535 14.2421 61.3669 13.6365 61.5956 13.0709C61.8243 12.5053 62.1637 11.9911 62.5939 11.5585C63.0241 11.1259 63.5364 10.7837 64.1007 10.5519C64.6651 10.3201 65.2701 10.2034 65.8801 10.2087C66.5073 10.2068 67.1283 10.3336 67.7046 10.5813C68.2398 10.7982 68.7161 11.1385 69.0949 11.5745L68.3136 12.3564C68.0158 12.0059 67.6416 11.7286 67.2196 11.5457C66.7977 11.3629 66.3394 11.2794 65.8801 11.3017C65.4178 11.2993 64.9597 11.3903 64.5333 11.5691C64.107 11.7479 63.7211 12.011 63.3988 12.3425C63.0765 12.674 62.8244 13.0671 62.6576 13.4983C62.4909 13.9296 62.4129 14.39 62.4283 14.8521C62.4172 15.5442 62.612 16.2241 62.9878 16.8054C63.3637 17.3867 63.9037 17.8433 64.5394 18.1173C65.1751 18.3913 65.8778 18.4703 66.5585 18.3444C67.2392 18.2185 67.8672 17.8933 68.3628 17.41C68.8189 16.9185 69.0833 16.2795 69.1078 15.6094H65.8801V14.5417H70.1872C70.2279 14.763 70.2488 14.9874 70.2494 15.2124Z" fill="white" stroke="white" stroke-width="0.2" stroke-miterlimit="10"/>
<path d="M77.0781 11.4999H73.0302V14.3182H76.6804V15.386H73.0302V18.2042H77.0781V19.2965H71.8887V10.4076H77.0781V11.4999Z" fill="white" stroke="white" stroke-width="0.2" stroke-miterlimit="10"/>
<path d="M81.8942 19.2965H80.7512V11.4999H78.2686V10.4076H84.3768V11.4999H81.8942V19.2965Z" fill="white" stroke="white" stroke-width="0.2" stroke-miterlimit="10"/>
<path d="M88.7969 19.2965V10.4076H89.9384V19.2965H88.7969Z" fill="white" stroke="white" stroke-width="0.2" stroke-miterlimit="10"/>
<path d="M95.0049 19.2965H93.8619V11.4999H91.3794V10.4076H97.4875V11.4999H95.0049V19.2965Z" fill="white" stroke="white" stroke-width="0.2" stroke-miterlimit="10"/>
<path d="M109.051 18.1478C108.186 19.0104 107.014 19.4947 105.792 19.4947C104.57 19.4947 103.398 19.0104 102.533 18.1478C102.105 17.7143 101.769 17.1991 101.544 16.6329C101.319 16.0668 101.21 15.4611 101.224 14.8521C101.21 14.243 101.319 13.6374 101.544 13.0712C101.769 12.5051 102.105 11.9899 102.533 11.5564C102.961 11.1286 103.469 10.7894 104.027 10.5582C104.586 10.3269 105.185 10.2081 105.79 10.2087C106.395 10.2092 106.994 10.329 107.552 10.5613C108.111 10.7935 108.618 11.1336 109.045 11.5622C109.473 11.9945 109.81 12.5085 110.036 13.0737C110.262 13.6388 110.372 14.2436 110.36 14.8521C110.374 15.4611 110.265 16.0666 110.04 16.6327C109.815 17.1988 109.478 17.714 109.051 18.1478ZM103.377 17.4035C104.017 18.0432 104.886 18.4025 105.791 18.4025C106.697 18.4025 107.565 18.0432 108.206 17.4035C108.534 17.0671 108.791 16.6675 108.961 16.229C109.131 15.7905 109.21 15.3221 109.194 14.8521C109.21 14.3821 109.131 13.9137 108.961 13.4752C108.791 13.0366 108.534 12.6371 108.206 12.3007C107.565 11.661 106.697 11.3017 105.791 11.3017C104.886 11.3017 104.017 11.661 103.377 12.3007C103.048 12.6374 102.792 13.037 102.622 13.4755C102.453 13.914 102.374 14.3822 102.39 14.8521C102.374 15.3219 102.453 15.7902 102.622 16.2287C102.792 16.6672 103.048 17.0668 103.377 17.4035Z" fill="white" stroke="white" stroke-width="0.2" stroke-miterlimit="10"/>
<path d="M111.963 19.2965V10.4076H113.353L117.673 17.3225H117.722L117.673 15.6094V10.4076H118.816V19.2965H117.624L113.104 12.0467H113.055L113.104 13.7598V19.2965H111.963Z" fill="white" stroke="white" stroke-width="0.2" stroke-miterlimit="10"/>
<path d="M100.942 32.2618C99.6969 32.2666 98.481 32.6401 97.4479 33.3354C96.4149 34.0306 95.611 35.0163 95.1377 36.1681C94.6645 37.3199 94.5431 38.586 94.7889 39.8067C95.0348 41.0274 95.6368 42.1479 96.5189 43.0268C97.4011 43.9056 98.5239 44.5033 99.7455 44.7445C100.967 44.9857 102.233 44.8595 103.383 44.3819C104.533 43.9043 105.515 43.0966 106.207 42.0609C106.898 41.0252 107.267 39.8079 107.267 38.5627C107.279 37.7299 107.124 36.9031 106.81 36.1315C106.496 35.3599 106.03 34.6594 105.44 34.0715C104.85 33.4837 104.148 33.0205 103.375 32.7096C102.602 32.3987 101.775 32.2464 100.942 32.2618ZM100.942 42.3816C100.175 42.4362 99.4096 42.2588 98.7451 41.8723C98.0805 41.4858 97.5477 40.9081 97.216 40.2146C96.8843 39.521 96.7691 38.7436 96.8854 37.9837C97.0017 37.2237 97.3441 36.5164 97.868 35.9538C98.3919 35.3912 99.0731 34.9993 99.8229 34.8292C100.573 34.6592 101.356 34.7188 102.072 35.0003C102.787 35.2818 103.401 35.7722 103.834 36.4076C104.267 37.043 104.498 37.7939 104.498 38.5627C104.521 39.0484 104.447 39.5339 104.28 39.9905C104.113 40.4471 103.856 40.8656 103.525 41.2215C103.193 41.5773 102.794 41.8633 102.351 42.0625C101.907 42.2617 101.428 42.3702 100.942 42.3816ZM87.1444 32.2618C85.8992 32.2665 84.6833 32.6401 83.6502 33.3353C82.6172 34.0305 81.8133 35.0162 81.34 36.168C80.8667 37.3198 80.7453 38.5859 80.9911 39.8067C81.2369 41.0274 81.8389 42.1479 82.7211 43.0267C83.6033 43.9055 84.726 44.5033 85.9477 44.7445C87.1693 44.9857 88.435 44.8595 89.585 44.3819C90.735 43.9043 91.7176 43.0966 92.4089 42.0609C93.1002 41.0253 93.4692 39.808 93.4692 38.5627C93.4814 37.7299 93.326 36.9031 93.0122 36.1315C92.6984 35.36 92.2325 34.6594 91.6425 34.0716C91.0524 33.4837 90.3501 33.0206 89.5773 32.7097C88.8046 32.3988 87.9772 32.2465 87.1444 32.2618ZM87.1444 42.3816C86.3776 42.4362 85.612 42.2588 84.9474 41.8723C84.2829 41.4858 83.75 40.9081 83.4184 40.2146C83.0867 39.521 82.9715 38.7436 83.0878 37.9837C83.2041 37.2237 83.5465 36.5164 84.0704 35.9538C84.5943 35.3912 85.2755 34.9993 86.0252 34.8292C86.775 34.6592 87.5586 34.7188 88.274 35.0003C88.9894 35.2818 89.6035 35.7722 90.0363 36.4076C90.4691 37.043 90.7006 37.7939 90.7006 38.5627C90.7239 39.0484 90.6497 39.5339 90.4826 39.9905C90.3154 40.4471 90.0586 40.8656 89.7272 41.2215C89.3958 41.5773 88.9966 41.8633 88.553 42.0625C88.1095 42.2618 87.6305 42.3702 87.1444 42.3816ZM70.7314 34.1952V36.8682H77.128C77.0357 38.122 76.5226 39.3079 75.672 40.2336C75.031 40.8869 74.2601 41.3987 73.4091 41.7358C72.5581 42.0728 71.6459 42.2278 70.7314 42.1906C68.8617 42.1653 67.0772 41.4048 65.764 40.0737C64.4508 38.7426 63.7146 36.948 63.7146 35.0781C63.7146 33.2083 64.4508 31.4137 65.764 30.0826C67.0772 28.7515 68.8617 27.991 70.7314 27.9657C72.5272 27.9422 74.2598 28.6284 75.5527 29.875L77.4382 27.9896C76.5561 27.1162 75.5084 26.4278 74.3568 25.9647C73.2051 25.5016 71.9725 25.273 70.7314 25.2925C69.4343 25.2736 68.1465 25.5128 66.9427 25.9961C65.7389 26.4794 64.6432 27.1972 63.7192 28.1077C62.7953 29.0183 62.0617 30.1034 61.5609 31.3001C61.0601 32.4967 60.8022 33.781 60.8022 35.0781C60.8022 36.3753 61.0601 37.6596 61.5609 38.8562C62.0617 40.0529 62.7953 41.138 63.7192 42.0486C64.6432 42.9591 65.7389 43.6769 66.9427 44.1602C68.1465 44.6435 69.4343 44.8827 70.7314 44.8638C71.9987 44.9163 73.2628 44.6988 74.4396 44.2256C75.6165 43.7524 76.6793 43.0343 77.5575 42.119C79.1166 40.4172 79.9476 38.1727 79.8727 35.8659C79.8788 35.3056 79.8308 34.7462 79.7293 34.1952H70.7314ZM137.855 36.2715C137.476 35.1302 136.755 34.1331 135.79 33.4158C134.825 32.6984 133.663 32.2955 132.461 32.2618C131.651 32.2669 130.851 32.436 130.109 32.759C129.366 33.0821 128.697 33.5523 128.142 34.1412C127.586 34.7302 127.156 35.4257 126.877 36.1856C126.598 36.9456 126.476 37.7543 126.518 38.5627C126.5 39.3912 126.649 40.2147 126.956 40.9843C127.263 41.7539 127.722 42.4537 128.306 43.0418C128.889 43.63 129.586 44.0944 130.353 44.4075C131.12 44.7205 131.943 44.8757 132.771 44.8638C133.809 44.8695 134.832 44.6174 135.749 44.13C136.665 43.6426 137.446 42.9352 138.022 42.0713L135.874 40.6393C135.552 41.1737 135.097 41.6153 134.553 41.9208C134.009 42.2262 133.395 42.385 132.771 42.3816C132.129 42.4061 131.495 42.2372 130.95 41.8967C130.405 41.5563 129.975 41.06 129.716 40.4722L138.141 36.9876L137.855 36.2715ZM129.263 38.3719C129.233 37.9133 129.295 37.4534 129.445 37.0191C129.596 36.5848 129.831 36.1848 130.138 35.8425C130.444 35.5003 130.816 35.2226 131.231 35.0258C131.647 34.829 132.097 34.717 132.556 34.6964C133.034 34.6649 133.511 34.7749 133.927 35.0126C134.343 35.2503 134.68 35.6051 134.895 36.033L129.263 38.3719ZM122.413 44.4819H125.181V25.961H122.413V44.4819ZM117.878 33.67H117.782C117.361 33.2127 116.848 32.8505 116.276 32.6077C115.703 32.3648 115.086 32.2469 114.465 32.2618C112.84 32.331 111.305 33.0251 110.18 34.1992C109.054 35.3733 108.426 36.9366 108.426 38.5628C108.426 40.189 109.054 41.7524 110.18 42.9265C111.305 44.1006 112.84 44.7946 114.465 44.8638C115.089 44.8804 115.708 44.7609 116.281 44.5136C116.854 44.2663 117.367 43.8971 117.782 43.4318H117.878V44.3387C117.878 46.7494 116.589 48.0381 114.512 48.0381C113.82 48.0216 113.149 47.7994 112.584 47.3998C112.018 47.0002 111.585 46.4414 111.338 45.7946L108.928 46.7971C109.382 47.9033 110.156 48.8486 111.151 49.512C112.146 50.1753 113.317 50.5264 114.512 50.5204C117.758 50.5204 120.503 48.611 120.503 43.9568V32.6436H117.878V33.67ZM114.704 42.3816C113.747 42.3004 112.855 41.8629 112.205 41.1558C111.555 40.4486 111.195 39.5232 111.195 38.5628C111.195 37.6024 111.555 36.6771 112.205 35.9699C112.855 35.2627 113.747 34.8252 114.704 34.7441C115.18 34.7673 115.646 34.8862 116.075 35.0936C116.504 35.301 116.887 35.5926 117.202 35.9512C117.516 36.3098 117.754 36.7279 117.903 37.1807C118.052 37.6335 118.108 38.1116 118.069 38.5866C118.106 39.0586 118.048 39.5333 117.897 39.9823C117.747 40.4313 117.507 40.8453 117.193 41.1996C116.879 41.5539 116.496 41.8411 116.069 42.0442C115.641 42.2473 115.177 42.362 114.704 42.3816ZM150.824 25.9613H144.2V44.4819H146.964V37.465H150.824C151.605 37.5078 152.388 37.3908 153.123 37.1211C153.858 36.8514 154.53 36.4347 155.099 35.8964C155.668 35.3581 156.121 34.7095 156.43 33.9902C156.74 33.271 156.899 32.4961 156.899 31.7131C156.899 30.9301 156.74 30.1553 156.43 29.436C156.121 28.7167 155.668 28.0681 155.099 27.5298C154.53 26.9915 153.858 26.5748 153.123 26.3051C152.388 26.0354 151.605 25.9184 150.824 25.9613ZM150.895 34.8875H146.964V28.5389H150.895C151.317 28.5301 151.737 28.6058 152.13 28.7614C152.523 28.917 152.881 29.1494 153.182 29.445C153.484 29.7406 153.724 30.0935 153.888 30.483C154.051 30.8725 154.136 31.2907 154.136 31.7132C154.136 32.1357 154.051 32.5539 153.888 32.9434C153.724 33.3328 153.484 33.6857 153.182 33.9814C152.881 34.277 152.523 34.5094 152.13 34.665C151.737 34.8206 151.317 34.8962 150.895 34.8875ZM167.979 32.2278C166.97 32.1689 165.966 32.4058 165.09 32.9095C164.214 33.4132 163.503 34.1617 163.047 35.0632L165.501 36.0878C165.744 35.6403 166.113 35.2735 166.561 35.0323C167.01 34.7911 167.519 34.6859 168.027 34.7296C168.728 34.6611 169.428 34.8735 169.972 35.3201C170.517 35.7667 170.863 36.4112 170.933 37.1122V37.3029C170.046 36.8313 169.056 36.5858 168.05 36.5881C165.406 36.5881 162.713 38.0416 162.713 40.7579C162.739 41.3303 162.879 41.8918 163.126 42.4089C163.373 42.9261 163.721 43.3884 164.15 43.7684C164.579 44.1484 165.08 44.4384 165.623 44.6211C166.166 44.8039 166.74 44.8757 167.312 44.8322C168.008 44.8732 168.702 44.7268 169.322 44.4083C169.942 44.0899 170.466 43.6109 170.838 43.0214H170.933V44.451H173.602V37.3506C173.602 34.0624 171.148 32.2278 167.979 32.2278ZM167.645 42.378C166.74 42.378 165.477 41.9254 165.477 40.8054C165.477 39.3759 167.05 38.8278 168.408 38.8278C169.29 38.8043 170.162 39.0183 170.933 39.4473C170.832 40.2506 170.443 40.99 169.839 41.5288C169.234 42.0675 168.455 42.3692 167.645 42.378ZM183.324 32.6328L180.155 40.6624H180.059L176.771 32.6328H173.793L178.725 43.8553L175.913 50.098H178.796L186.397 32.6328H183.324ZM158.424 44.4819H161.188V25.9613H158.424V44.4819Z" fill="white"/>
<path d="M15.4596 11.2047C14.9738 11.7855 14.7285 12.5301 14.7739 13.286V46.0506C14.7283 46.8065 14.9737 47.5511 15.4596 48.1319L15.5692 48.2387L33.9233 29.8848V29.4518L15.5692 11.0971L15.4596 11.2047Z" fill="url(#paint0_linear_1211_911)"/>
<path d="M40.041 36.0054L33.9233 29.8848V29.4518L40.0425 23.3327L40.1804 23.4113L47.429 27.53C49.4995 28.7063 49.4995 30.631 47.429 31.8081L40.1804 35.9267L40.041 36.0054Z" fill="url(#paint1_linear_1211_911)"/>
<path d="M40.1802 35.926L33.9232 29.6684L15.4595 48.1319C15.8814 48.504 16.4201 48.7168 16.9824 48.7334C17.5447 48.75 18.095 48.5694 18.5381 48.2229L40.1802 35.926Z" fill="url(#paint2_linear_1211_911)"/>
<path d="M40.1802 23.4106L18.5381 11.1137C18.095 10.7672 17.5447 10.5866 16.9824 10.6032C16.4201 10.6198 15.8814 10.8326 15.4595 11.2047L33.9232 29.6684L40.1802 23.4106Z" fill="url(#paint3_linear_1211_911)"/>
<path opacity="0.2" d="M40.0423 35.7882L18.5381 48.0064C18.1121 48.3308 17.5921 48.5077 17.0566 48.5106C16.5212 48.5134 15.9993 48.3421 15.5698 48.0223L15.4595 48.1327L15.5691 48.2395L15.5698 48.2387C15.9993 48.5587 16.5211 48.7302 17.0566 48.7273C17.5921 48.7244 18.1122 48.5474 18.5381 48.2229L40.1802 35.926L40.0423 35.7882Z" fill="black"/>
<path opacity="0.12" d="M15.4595 47.9162C14.9738 47.3353 14.7285 46.5907 14.7739 45.8349V46.0513C14.7285 46.8072 14.9738 47.5518 15.4595 48.1327L15.5699 48.0223L15.4595 47.9162Z" fill="black"/>
<path opacity="0.12" d="M47.429 31.5909L40.0425 35.7882L40.1804 35.926L47.429 31.8073C47.8554 31.6223 48.2244 31.3263 48.4975 30.9502C48.7707 30.5741 48.938 30.1317 48.982 29.669C48.8904 30.088 48.7023 30.4799 48.4327 30.8135C48.1631 31.1471 47.8194 31.4133 47.429 31.5909Z" fill="black"/>
<path opacity="0.25" d="M18.5382 11.3309L47.4289 27.7457C47.8195 27.9233 48.1633 28.1895 48.4329 28.5233C48.7025 28.8571 48.8905 29.2492 48.9819 29.6684C48.9382 29.2055 48.771 28.7628 48.4978 28.3865C48.2246 28.0103 47.8555 27.7142 47.4289 27.5293L18.5382 11.1145C16.4677 9.93801 14.7739 10.9152 14.7739 13.2868V13.5032C14.7739 11.1318 16.4677 10.1546 18.5382 11.3309Z" fill="white"/>
</g>
<defs>
<linearGradient id="paint0_linear_1211_911" x1="32.2956" y1="12.9405" x2="7.4328" y2="37.8034" gradientUnits="userSpaceOnUse">
<stop stop-color="#00A0FF"/>
<stop offset="0.00657" stop-color="#00A1FF"/>
<stop offset="0.2601" stop-color="#00BEFF"/>
<stop offset="0.5122" stop-color="#00D2FF"/>
<stop offset="0.7604" stop-color="#00DFFF"/>
<stop offset="1" stop-color="#00E3FF"/>
</linearGradient>
<linearGradient id="paint1_linear_1211_911" x1="50.1248" y1="29.669" x2="14.2775" y2="29.669" gradientUnits="userSpaceOnUse">
<stop stop-color="#FFE000"/>
<stop offset="0.4087" stop-color="#FFBD00"/>
<stop offset="0.7754" stop-color="#FFA500"/>
<stop offset="1" stop-color="#FF9C00"/>
</linearGradient>
<linearGradient id="paint2_linear_1211_911" x1="36.7803" y1="33.0685" x2="3.06431" y2="66.7845" gradientUnits="userSpaceOnUse">
<stop stop-color="#FF3A44"/>
<stop offset="1" stop-color="#C31162"/>
</linearGradient>
<linearGradient id="paint3_linear_1211_911" x1="10.8105" y1="0.298252" x2="25.8661" y2="15.3538" gradientUnits="userSpaceOnUse">
<stop stop-color="#32A071"/>
<stop offset="0.0685" stop-color="#2DA771"/>
<stop offset="0.4762" stop-color="#15CF74"/>
<stop offset="0.8009" stop-color="#06E775"/>
<stop offset="1" stop-color="#00F076"/>
</linearGradient>
<clipPath id="clip0_1211_911">
<rect width="200" height="59.2596" fill="white" transform="translate(0 0.0371094)"/>
</clipPath>
</defs>
</svg>
