<svg xmlns="http://www.w3.org/2000/svg" width="22" height="23" viewBox="0 0 22 23" fill="none">
<path d="M0.79875 10.5428C0.79875 10.5428 0.0432021 9.44151 1.14515 8.68663C2.24577 7.93175 3.00065 9.03236 3.00065 9.03236L6.50541 14.1437C6.62622 13.9421 6.75837 13.7432 6.90588 13.547L2.04153 6.45402C2.04153 6.45402 1.28665 5.3534 2.38794 4.59852C3.48856 3.84364 4.24344 4.94426 4.24344 4.94426L8.81877 11.6167C8.98897 11.4779 9.16318 11.3384 9.34272 11.2016L4.03853 3.4652C4.03853 3.4652 3.28365 2.36458 4.38493 1.6097C5.48555 0.854822 6.24043 1.95544 6.24043 1.95544L11.5446 9.69046C11.7395 9.57099 11.9324 9.46754 12.126 9.35808L7.16818 2.12831C7.16818 2.12831 6.4133 1.02769 7.51392 0.27281C8.61454 -0.482071 9.36942 0.618546 9.36942 0.618546L14.6115 8.26346L15.4085 9.42616C12.1059 11.6915 11.7916 15.9531 13.6784 18.705C14.0556 19.2556 14.6062 18.8785 14.6062 18.8785C12.3416 15.5753 13.033 11.8637 16.3362 9.59902L15.3624 4.72534C15.3624 4.72534 14.9987 3.44117 16.2821 3.07675C17.5663 2.71299 17.9307 3.99715 17.9307 3.99715L19.0554 7.33705C19.5012 8.66126 19.9758 9.9808 20.6039 11.2289C22.3773 14.753 21.318 19.1328 17.9741 21.4268C14.3265 23.9277 9.34005 22.998 6.83846 19.3511L0.79875 10.5428Z" fill="#FFDC5D"/>
</svg>