<svg width="1440" height="866" viewBox="0 0 1440 866" fill="none" xmlns="http://www.w3.org/2000/svg">
<mask id="mask0_2_3" style="mask-type:alpha" maskUnits="userSpaceOnUse" x="0" y="0" width="1440" height="866">
<rect width="1440" height="866" fill="#C4C4C4"/>
</mask>
<g mask="url(#mask0_2_3)">
<g filter="url(#filter0_b_2_3)">
<path d="M0 0H1440V572L0 752V0Z" fill="#9D1583" fill-opacity="0.04"/>
</g>
<path opacity="0.4" d="M1260 594.005L1680 541.488V605.488L1260 658.005V594.005Z" fill="#159D2F"/>
<path opacity="0.8" d="M828 584.808L1440 508V572L828 648.808V584.808Z" fill="#9D1583"/>
<path opacity="0.4" d="M988 500.517L1408 448V512L988 564.517V500.517Z" fill="#159D2F"/>
<path opacity="0.4" d="M0 688.016L420 635.499V699.499L0 752.016V688.016Z" fill="#159D2F"/>
<path opacity="0.8" d="M-152 771.005L268 718.488V782.488L-152 835.005V771.005Z" fill="#9D1583"/>
</g>
<path d="M63.6111 191C76.6512 191 87.2222 180.429 87.2222 167.389C87.2222 154.349 76.6512 143.778 63.6111 143.778C50.5711 143.778 40 154.349 40 167.389C40 180.429 50.5711 191 63.6111 191Z" fill="#FFCC4D"/>
<path d="M64.9987 180.583C66.5328 180.583 67.7764 179.029 67.7764 177.111C67.7764 175.193 66.5328 173.639 64.9987 173.639C63.4645 173.639 62.2209 175.193 62.2209 177.111C62.2209 179.029 63.4645 180.583 64.9987 180.583Z" fill="#664500"/>
<path d="M51.2654 170.699C51.0126 170.699 50.7557 170.629 50.5265 170.485C49.8779 170.076 49.6835 169.219 50.0918 168.569C51.364 166.551 55.2321 163.1 60.7724 164.456C61.5168 164.638 61.9724 165.39 61.7904 166.135C61.6071 166.879 60.8515 167.332 60.1112 167.153C55.1057 165.928 52.4696 170.008 52.4432 170.05C52.1779 170.469 51.7265 170.699 51.2654 170.699ZM67.8946 165.501C67.4918 165.501 67.0946 165.328 66.8196 164.993C66.3335 164.4 66.4196 163.524 67.014 163.038C71.4251 159.421 76.4057 160.868 78.4237 162.14C79.0724 162.549 79.2668 163.407 78.8571 164.056C78.4501 164.701 77.596 164.899 76.946 164.493C76.7543 164.376 72.7071 161.961 68.7737 165.186C68.5154 165.399 68.2043 165.501 67.8946 165.501Z" fill="#664500"/>
<path d="M58.5362 184.435C58.4417 184.435 58.3459 184.422 58.2514 184.396C57.6987 184.239 57.3764 183.664 57.5334 183.11C58.1403 180.971 57.8917 178.903 56.8528 177.435C56.1625 176.46 55.1792 175.864 54.1542 175.799C53.5792 175.764 53.1431 175.268 53.1792 174.694C53.2153 174.121 53.7084 173.651 54.2834 173.721C55.9403 173.824 57.4959 174.739 58.5514 176.231C59.9556 178.215 60.3153 180.929 59.5362 183.676C59.407 184.136 58.9889 184.435 58.5362 184.435ZM73.8653 180.183C73.6681 180.183 73.4695 180.128 73.2931 180.011C71.6723 178.942 70.7653 177.071 70.8042 174.879C70.8445 172.608 71.9278 170.5 73.5598 169.506C74.05 169.206 74.6903 169.361 74.9903 169.854C75.2903 170.346 75.1348 170.985 74.6417 171.285C73.6209 171.907 72.9139 173.367 72.8862 174.915C72.8584 176.381 73.4264 177.604 74.4389 178.272C74.9195 178.589 75.0514 179.235 74.7348 179.715C74.5348 180.019 74.2042 180.183 73.8653 180.183V180.183Z" fill="#E2A62D"/>
<path d="M63.8599 144.778C63.8002 144.71 63.7071 144.672 63.5974 144.651C63.5974 144.651 41.4807 140.453 40.5238 141.297C39.5682 142.143 41.028 164.608 41.028 164.608C41.0349 164.721 41.0599 164.817 41.121 164.885C41.9599 165.835 47.7294 162.101 54.0085 156.55C60.2891 150.997 64.6988 145.728 63.8599 144.778V144.778Z" fill="#DD2E44"/>
<path d="M40.4848 141.376C40.464 141.418 40.4459 141.475 40.432 141.547C40.6528 143.451 42.7862 159.119 44.1153 164.017C46.1098 162.901 48.1362 161.386 50.5167 159.499C48.4945 155.797 41.6084 141.203 40.4848 141.376Z" fill="#EA596E"/>
<path d="M81.5307 181.596L66.8459 179.786C65.2765 179.644 62.5168 179.631 62.6584 177.144C62.7876 174.89 65.4918 175.238 67.4904 175.533L82.2654 177.997L81.5307 181.596V181.596Z" fill="#3B88C3"/>
<path d="M82.2638 177.999L76.3999 176.993C75.7138 176.869 75.1027 177.892 75.0721 178.974C75.0374 180.176 75.3874 180.785 76.0805 180.926L81.836 181.637L82.2638 177.999V177.999Z" fill="#88C9F9"/>
<path d="M88.4971 177.585L84.8554 180.933L78.3457 173.854L81.9874 170.506C83.8776 168.767 86.8471 168.892 88.586 170.782L88.7735 170.986C90.511 172.878 90.3874 175.846 88.4971 177.585Z" fill="#3B88C3"/>
<path d="M84.8533 180.935C86.4174 179.497 86.2282 176.747 84.4309 174.792C82.6335 172.837 79.9084 172.418 78.3443 173.856C76.7802 175.294 76.9693 178.045 78.7667 180C80.5641 181.955 83.2891 182.373 84.8533 180.935Z" fill="#88C9F9"/>
<path d="M83.5514 179.519C84.3335 178.8 84.0933 177.266 83.015 176.094C81.9366 174.921 80.4285 174.553 79.6464 175.272C78.8644 175.991 79.1046 177.525 80.1829 178.698C81.2612 179.87 82.7694 180.238 83.5514 179.519Z" fill="#226699"/>
<path d="M43.4722 189.611C44.6228 189.611 45.5556 188.678 45.5556 187.528C45.5556 186.377 44.6228 185.444 43.4722 185.444C42.3217 185.444 41.3889 186.377 41.3889 187.528C41.3889 188.678 42.3217 189.611 43.4722 189.611Z" fill="#55ACEE"/>
<path d="M80.2778 146.556C81.8119 146.556 83.0556 145.312 83.0556 143.778C83.0556 142.244 81.8119 141 80.2778 141C78.7437 141 77.5 142.244 77.5 143.778C77.5 145.312 78.7437 146.556 80.2778 146.556Z" fill="#55ACEE"/>
<path d="M46.7557 181.619L43.5085 173.819L40.5724 182.215L46.7557 181.619ZM76.1113 147.944L70.5557 149.333L71.9446 143.778L76.1113 147.944Z" fill="#EA596E"/>
<path d="M84.4431 159.056L90.0001 152.11L85.8334 149.333L84.4431 159.056Z" fill="#77B255"/>
<path d="M750.556 78L745 89.15L738.056 82.1806V91.9361L724.167 89.15L735.278 100.3L720 108.661H736.667L728.333 125.386L745 114.236L760.278 128.174L756.111 108.661H770L758.889 100.299L770 87.7556L753.333 91.9361L750.556 78Z" fill="#BB1A34"/>
<path d="M751.825 95.95L754.408 95.3014L761.667 93.4805L756.971 98.7805L755.139 100.85L757.347 102.51L761.41 105.568H753.19L753.847 108.649L756.001 118.732L747.883 111.326L746.417 109.987L744.767 111.092L737.489 115.961L740.831 109.256L742.667 105.568H733.283L738.504 102.708L741.483 101.081L739.085 98.6708L734.857 94.4305L739.331 95.3277L742.367 95.9375V90.0639L744.381 92.0847L746.872 94.5833L748.446 91.4222L750.214 87.8722" fill="#FCAB40"/>
<path d="M749.878 97.8625L750.943 97.5945L753.94 96.8431L752.001 99.032L751.244 99.8861L752.156 100.571L753.833 101.833H750.44L750.711 103.106L751.601 107.268L748.25 104.211L747.643 103.658L746.962 104.114L743.958 106.125L745.337 103.356L746.096 101.833H742.222L744.379 100.653L745.608 99.9806L744.618 98.9861L742.872 97.2347L744.718 97.6056L745.972 97.857V95.4334L746.804 96.2667L747.832 97.2986L748.482 95.9945L749.211 94.5278" fill="#F5F8FA"/>
<path d="M1199.19 259.809C1210.34 270.959 1213.36 286.028 1205.92 293.46C1198.49 300.895 1183.42 297.881 1172.27 286.731C1171.89 286.352 1171.55 285.958 1171.18 285.57L1177.88 278.878C1186.55 287.551 1197.6 290.566 1202.55 285.608C1207.51 280.652 1204.5 269.603 1195.82 260.931L1195.86 260.962L1195.83 260.929C1185.92 251.017 1172.35 248.506 1165.54 255.32C1162.25 258.615 1161.15 263.491 1162 268.764C1160.7 262.578 1161.77 256.846 1165.54 253.077C1172.97 245.644 1188.04 248.658 1199.19 259.809Z" fill="#FDD888"/>
<path d="M1184.85 300.516C1184.47 300.516 1184.09 300.399 1183.76 300.166L1176.07 294.649L1168.38 300.166C1167.73 300.636 1166.85 300.636 1166.2 300.158C1165.54 299.685 1165.27 298.849 1165.51 298.084L1168.38 288.826L1160.76 283.455C1160.11 282.978 1159.84 282.138 1160.09 281.372C1160.34 280.608 1161.05 280.088 1161.86 280.082L1171.17 280.064L1174.3 271.038C1174.56 270.275 1175.27 269.759 1176.07 269.759C1176.88 269.759 1177.59 270.275 1177.85 271.038L1180.67 280.064L1190.29 280.082C1191.1 280.088 1191.81 280.608 1192.06 281.372C1192.3 282.138 1192.03 282.978 1191.39 283.455L1183.76 288.826L1186.63 298.084C1186.88 298.849 1186.6 299.687 1185.95 300.158C1185.62 300.398 1185.24 300.516 1184.85 300.516V300.516Z" fill="#FFAC33"/>
<defs>
<filter id="filter0_b_2_3" x="-100" y="-100" width="1640" height="952" filterUnits="userSpaceOnUse" color-interpolation-filters="sRGB">
<feFlood flood-opacity="0" result="BackgroundImageFix"/>
<feGaussianBlur in="BackgroundImage" stdDeviation="50"/>
<feComposite in2="SourceAlpha" operator="in" result="effect1_backgroundBlur_2_3"/>
<feBlend mode="normal" in="SourceGraphic" in2="effect1_backgroundBlur_2_3" result="shape"/>
</filter>
</defs>
</svg>
