<svg width="120" height="113" viewBox="0 0 120 113" fill="none" xmlns="http://www.w3.org/2000/svg">
<path d="M6.11298 104.446C9.64516 104.446 12.324 102.458 12.324 99.3688C12.324 96.6251 10.1853 95.2965 7.43079 94.0867C5.31364 93.1793 3.70417 92.6933 3.70417 91.3322C3.70417 90.1008 4.97879 89.1071 6.57745 89.1071C7.84126 89.1071 9.04026 89.766 9.58035 90.9434L11.6111 89.5391C10.8982 87.6272 9.04026 86.4282 6.55585 86.4282C3.42333 86.4282 0.949715 88.4157 0.949715 91.2674C0.949715 94.0003 3.21809 95.0589 5.25963 95.9662C7.29037 96.8412 9.58035 97.8133 9.58035 99.4228C9.58035 100.751 8.10051 101.691 6.14538 101.691C4.4711 101.691 3.02366 100.913 2.24593 99.5524L0.0855713 101.097C1.07934 103.106 3.2505 104.446 6.11298 104.446Z" fill="black"/>
<path d="M25.9667 104.154H28.9264L20.7386 86.385H20.5766L12.3888 104.154H15.3485L16.5367 101.508H24.7785L25.9667 104.154ZM17.5953 99.1635L20.663 92.3584L23.7199 99.1635H17.5953Z" fill="black"/>
<path d="M37.4382 104.435C40.0306 104.435 41.9425 103.301 43.444 101.821L41.8669 99.6172C40.6679 100.805 39.1341 101.691 37.3518 101.691C34.2301 101.691 31.1732 98.9799 31.1732 95.4693C31.1732 91.9803 34.1869 89.2151 37.341 89.2151C39.0477 89.2151 40.6355 90.0252 41.8561 91.2458L43.444 89.0963C41.7373 87.4328 39.6526 86.4714 37.395 86.439C32.5018 86.439 28.4079 90.5545 28.4079 95.4585C28.4079 100.373 32.5018 104.435 37.4382 104.435Z" fill="black"/>
<path d="M52.2695 91.0934C50.3006 91.0934 48.7742 91.8677 47.9114 93.2172V86.4036H46.3407V102.818H47.9114V96.7125C47.9114 94.0578 49.4821 92.5093 51.9819 92.5093C54.1941 92.5093 55.4772 93.7702 55.4772 96.2258V102.818H57.0478V96.0709C57.0478 92.7305 55.1011 91.0934 52.2695 91.0934Z" fill="black"/>
<path d="M66.1115 102.929C69.5183 102.929 72.0181 100.451 72.0181 97C72.0181 93.549 69.5183 91.0934 66.1115 91.0934C62.7047 91.0934 60.1828 93.549 60.1828 97C60.1828 100.451 62.7047 102.929 66.1115 102.929ZM66.1115 101.535C63.6338 101.535 61.7756 99.7211 61.7756 97C61.7756 94.279 63.6338 92.465 66.1115 92.465C68.5892 92.465 70.4253 94.279 70.4253 97C70.4253 99.7211 68.5892 101.535 66.1115 101.535Z" fill="black"/>
<path d="M89.7368 91.0934C87.6352 91.0934 85.9761 92.0447 85.1354 93.549C84.4275 91.912 82.9232 91.0934 80.9986 91.0934C79.0519 91.0934 77.5476 91.912 76.729 93.3056V91.1819H75.2247V102.818H76.7954V96.7125C76.7954 94.0578 78.3218 92.5093 80.6889 92.5093C82.8126 92.5093 84.0515 93.7702 84.0515 96.2258V102.818H85.6221V96.7125C85.6221 94.0578 87.1264 92.5093 89.5156 92.5093C91.6172 92.5093 92.856 93.7702 92.856 96.2258V102.818H94.4267V96.0709C94.4267 92.7305 92.5685 91.0934 89.7368 91.0934Z" fill="black"/>
<path d="M108.883 97C108.883 93.5047 106.516 91.0934 103.242 91.0934C99.9683 91.0934 97.557 93.549 97.557 97C97.557 100.451 100.035 102.929 103.663 102.929C105.499 102.929 107.114 102.265 108.153 101.026L107.269 100.009C106.384 101.026 105.123 101.535 103.707 101.535C101.163 101.535 99.3046 99.9202 99.1277 97.4867H108.861C108.861 97.3097 108.883 97.1328 108.883 97ZM103.242 92.4429C105.521 92.4429 107.18 94.0357 107.379 96.3143H99.1277C99.3268 94.0357 100.986 92.4429 103.242 92.4429Z" fill="black"/>
<path d="M115.2 102.929C118.23 102.929 120 101.624 120 99.6104C120 95.1418 112.457 97.5088 112.457 94.3675C112.457 93.2614 113.386 92.4429 115.487 92.4429C116.682 92.4429 117.899 92.7305 118.916 93.4384L119.602 92.1774C118.629 91.5138 116.992 91.0934 115.487 91.0934C112.523 91.0934 110.886 92.5093 110.886 94.4118C110.886 99.0131 118.43 96.624 118.43 99.6547C118.43 100.805 117.523 101.557 115.31 101.557C113.673 101.557 112.103 100.982 111.173 100.252L110.466 101.491C111.417 102.309 113.275 102.929 115.2 102.929Z" fill="black"/>
<path d="M14.3616 111.703C15.2371 111.703 15.7484 111.326 15.7484 110.744C15.7484 109.453 13.5691 110.137 13.5691 109.23C13.5691 108.91 13.8375 108.674 14.4446 108.674C14.7897 108.674 15.1412 108.757 15.4352 108.961L15.6333 108.597C15.3521 108.405 14.8792 108.284 14.4446 108.284C13.5883 108.284 13.1153 108.693 13.1153 109.242C13.1153 110.572 15.2946 109.882 15.2946 110.757C15.2946 111.089 15.0326 111.307 14.3935 111.307C13.9206 111.307 13.4668 111.141 13.1984 110.93L12.9939 111.288C13.2687 111.524 13.8055 111.703 14.3616 111.703Z" fill="#004E89"/>
<path d="M17.7632 108.284C17.2327 108.284 16.7342 108.45 16.3955 108.738L16.6 109.076C16.8748 108.833 17.2838 108.68 17.7184 108.68C18.3447 108.68 18.6707 108.993 18.6707 109.568V109.773H17.6034C16.6384 109.773 16.306 110.207 16.306 110.725C16.306 111.307 16.7726 111.703 17.5331 111.703C18.0891 111.703 18.4853 111.492 18.6898 111.147V111.671H19.1244V109.588C19.1244 108.718 18.6323 108.284 17.7632 108.284ZM17.6034 111.345C17.0666 111.345 16.7534 111.102 16.7534 110.712C16.7534 110.367 16.9643 110.112 17.6162 110.112H18.6707V110.661C18.4917 111.102 18.1147 111.345 17.6034 111.345Z" fill="#004E89"/>
<path d="M21.4689 107.28C21.6606 107.28 21.8396 107.338 21.9674 107.447L22.1208 107.108C21.9546 106.967 21.699 106.897 21.4497 106.897C20.7915 106.897 20.4336 107.293 20.4336 107.894V108.309H19.8328V108.693H20.4336V111.671H20.8873V108.693H21.9099V108.309H20.8745V107.913C20.8745 107.498 21.0791 107.28 21.4689 107.28Z" fill="#004E89"/>
<path d="M25.3998 109.99C25.3998 108.98 24.716 108.284 23.7701 108.284C22.8243 108.284 22.1277 108.993 22.1277 109.99C22.1277 110.987 22.8434 111.703 23.8916 111.703C24.422 111.703 24.8885 111.511 25.1889 111.153L24.9333 110.859C24.6776 111.153 24.3134 111.3 23.9043 111.3C23.1694 111.3 22.6325 110.834 22.5814 110.131H25.3934C25.3934 110.08 25.3998 110.029 25.3998 109.99ZM23.7701 108.674C24.4284 108.674 24.9077 109.134 24.9652 109.792H22.5814C22.6389 109.134 23.1183 108.674 23.7701 108.674Z" fill="#004E89"/>
<path d="M26.3745 111.006C26.1828 111.006 26.0358 111.153 26.0358 111.351C26.0358 111.518 26.1317 111.639 26.2659 111.677L26.0486 112.604H26.3554L26.6238 111.722C26.6877 111.543 26.7132 111.46 26.7132 111.351C26.7132 111.16 26.5726 111.006 26.3745 111.006Z" fill="#004E89"/>
<path d="M30.5263 108.284C29.9958 108.284 29.4973 108.45 29.1586 108.738L29.3631 109.076C29.6379 108.833 30.047 108.68 30.4815 108.68C31.1078 108.68 31.4338 108.993 31.4338 109.568V109.773H30.3665C29.4015 109.773 29.0691 110.207 29.0691 110.725C29.0691 111.307 29.5357 111.703 30.2962 111.703C30.8522 111.703 31.2484 111.492 31.453 111.147V111.671H31.8875V109.588C31.8875 108.718 31.3954 108.284 30.5263 108.284ZM30.3665 111.345C29.8297 111.345 29.5165 111.102 29.5165 110.712C29.5165 110.367 29.7274 110.112 30.3793 110.112H31.4338V110.661C31.2548 111.102 30.8778 111.345 30.3665 111.345Z" fill="#004E89"/>
<path d="M34.232 107.28C34.4237 107.28 34.6027 107.338 34.7305 107.447L34.8839 107.108C34.7177 106.967 34.4621 106.897 34.2128 106.897C33.5546 106.897 33.1967 107.293 33.1967 107.894V108.309H32.5959V108.693H33.1967V111.671H33.6504V108.693H34.673V108.309H33.6376V107.913C33.6376 107.498 33.8422 107.28 34.232 107.28Z" fill="#004E89"/>
<path d="M36.3977 107.28C36.5894 107.28 36.7683 107.338 36.8962 107.447L37.0495 107.108C36.8834 106.967 36.6277 106.897 36.3785 106.897C35.7202 106.897 35.3623 107.293 35.3623 107.894V108.309H34.7616V108.693H35.3623V111.671H35.8161V108.693H36.8386V108.309H35.8033V107.913C35.8033 107.498 36.0078 107.28 36.3977 107.28Z" fill="#004E89"/>
<path d="M38.7692 111.703C39.7534 111.703 40.4756 110.987 40.4756 109.99C40.4756 108.993 39.7534 108.284 38.7692 108.284C37.785 108.284 37.0564 108.993 37.0564 109.99C37.0564 110.987 37.785 111.703 38.7692 111.703ZM38.7692 111.3C38.0534 111.3 37.5166 110.776 37.5166 109.99C37.5166 109.204 38.0534 108.68 38.7692 108.68C39.485 108.68 40.0154 109.204 40.0154 109.99C40.0154 110.776 39.485 111.3 38.7692 111.3Z" fill="#004E89"/>
<path d="M41.8365 108.968V108.309H41.402V111.671H41.8557V109.958C41.8557 109.166 42.2839 108.718 42.9869 108.718C43.0189 108.718 43.0572 108.725 43.0956 108.725V108.284C42.4756 108.284 42.0474 108.52 41.8365 108.968Z" fill="#004E89"/>
<path d="M46.4998 106.929V108.948C46.2186 108.514 45.7585 108.284 45.2216 108.284C44.263 108.284 43.5472 108.974 43.5472 109.99C43.5472 111.006 44.263 111.703 45.2216 111.703C45.7776 111.703 46.2442 111.46 46.519 111.006V111.671H46.9536V106.929H46.4998ZM45.26 111.3C44.5442 111.3 44.0074 110.776 44.0074 109.99C44.0074 109.204 44.5442 108.68 45.26 108.68C45.9694 108.68 46.5062 109.204 46.5062 109.99C46.5062 110.776 45.9694 111.3 45.26 111.3Z" fill="#004E89"/>
<path d="M49.3932 108.284C48.8628 108.284 48.3643 108.45 48.0255 108.738L48.2301 109.076C48.5049 108.833 48.9139 108.68 49.3485 108.68C49.9748 108.68 50.3007 108.993 50.3007 109.568V109.773H49.2334C48.2684 109.773 47.9361 110.207 47.9361 110.725C47.9361 111.307 48.4026 111.703 49.1631 111.703C49.7191 111.703 50.1154 111.492 50.3199 111.147V111.671H50.7545V109.588C50.7545 108.718 50.2624 108.284 49.3932 108.284ZM49.2334 111.345C48.6966 111.345 48.3834 111.102 48.3834 110.712C48.3834 110.367 48.5943 110.112 49.2462 110.112H50.3007V110.661C50.1218 111.102 49.7447 111.345 49.2334 111.345Z" fill="#004E89"/>
<path d="M53.7189 108.284C53.182 108.284 52.7219 108.514 52.4407 108.948V106.929H51.9869V111.671H52.4215V111.006C52.6963 111.46 53.1628 111.703 53.7189 111.703C54.6775 111.703 55.3933 111.006 55.3933 109.99C55.3933 108.974 54.6775 108.284 53.7189 108.284ZM53.6869 111.3C52.9711 111.3 52.4343 110.776 52.4343 109.99C52.4343 109.204 52.9711 108.68 53.6869 108.68C54.3963 108.68 54.9395 109.204 54.9395 109.99C54.9395 110.776 54.3963 111.3 53.6869 111.3Z" fill="#004E89"/>
<path d="M56.3183 111.671H56.772V106.929H56.3183V111.671Z" fill="#004E89"/>
<path d="M60.968 109.99C60.968 108.98 60.2842 108.284 59.3383 108.284C58.3925 108.284 57.6959 108.993 57.6959 109.99C57.6959 110.987 58.4116 111.703 59.4597 111.703C59.9902 111.703 60.4567 111.511 60.7571 111.153L60.5015 110.859C60.2458 111.153 59.8815 111.3 59.4725 111.3C58.7376 111.3 58.2007 110.834 58.1496 110.131H60.9616C60.9616 110.08 60.968 110.029 60.968 109.99ZM59.3383 108.674C59.9966 108.674 60.4759 109.134 60.5334 109.792H58.1496C58.2071 109.134 58.6864 108.674 59.3383 108.674Z" fill="#004E89"/>
<path d="M61.9427 111.006C61.751 111.006 61.604 111.153 61.604 111.351C61.604 111.518 61.6999 111.639 61.8341 111.677L61.6168 112.604H61.9235L62.192 111.722C62.2559 111.543 62.2814 111.46 62.2814 111.351C62.2814 111.16 62.1408 111.006 61.9427 111.006Z" fill="#004E89"/>
<path d="M66.3118 111.703C66.8805 111.703 67.3599 111.473 67.6283 111.038L67.2896 110.808C67.0595 111.147 66.7016 111.3 66.3118 111.3C65.5768 111.3 65.04 110.783 65.04 109.99C65.04 109.204 65.5768 108.68 66.3118 108.68C66.7016 108.68 67.0595 108.84 67.2896 109.179L67.6283 108.948C67.3599 108.507 66.8805 108.284 66.3118 108.284C65.3084 108.284 64.5798 108.987 64.5798 109.99C64.5798 110.994 65.3084 111.703 66.3118 111.703Z" fill="#004E89"/>
<path d="M69.8375 111.703C70.8217 111.703 71.5439 110.987 71.5439 109.99C71.5439 108.993 70.8217 108.284 69.8375 108.284C68.8533 108.284 68.1248 108.993 68.1248 109.99C68.1248 110.987 68.8533 111.703 69.8375 111.703ZM69.8375 111.3C69.1218 111.3 68.5849 110.776 68.5849 109.99C68.5849 109.204 69.1218 108.68 69.8375 108.68C70.5533 108.68 71.0838 109.204 71.0838 109.99C71.0838 110.776 70.5533 111.3 69.8375 111.3Z" fill="#004E89"/>
<path d="M76.6627 108.284C76.0556 108.284 75.5763 108.559 75.3334 108.993C75.1289 108.52 74.6943 108.284 74.1383 108.284C73.5759 108.284 73.1413 108.52 72.9049 108.923V108.309H72.4703V111.671H72.9241V109.907C72.9241 109.14 73.365 108.693 74.0489 108.693C74.6624 108.693 75.0203 109.057 75.0203 109.766V111.671H75.474V109.907C75.474 109.14 75.9086 108.693 76.5988 108.693C77.206 108.693 77.5639 109.057 77.5639 109.766V111.671H78.0176V109.722C78.0176 108.757 77.4808 108.284 76.6627 108.284Z" fill="#004E89"/>
<path d="M80.3602 107.28C80.5519 107.28 80.7309 107.338 80.8587 107.447L81.0121 107.108C80.8459 106.967 80.5903 106.897 80.341 106.897C79.6827 106.897 79.3249 107.293 79.3249 107.894V108.309H78.7241V108.693H79.3249V111.671H79.7786V108.693H80.8012V108.309H79.7658V107.913C79.7658 107.498 79.9703 107.28 80.3602 107.28Z" fill="#004E89"/>
<path d="M82.7317 111.703C83.7159 111.703 84.4381 110.987 84.4381 109.99C84.4381 108.993 83.7159 108.284 82.7317 108.284C81.7475 108.284 81.0189 108.993 81.0189 109.99C81.0189 110.987 81.7475 111.703 82.7317 111.703ZM82.7317 111.3C82.0159 111.3 81.4791 110.776 81.4791 109.99C81.4791 109.204 82.0159 108.68 82.7317 108.68C83.4475 108.68 83.9779 109.204 83.9779 109.99C83.9779 110.776 83.4475 111.3 82.7317 111.3Z" fill="#004E89"/>
<path d="M85.799 108.968V108.309H85.3645V111.671H85.8182V109.958C85.8182 109.166 86.2464 108.718 86.9494 108.718C86.9814 108.718 87.0197 108.725 87.0581 108.725V108.284C86.4381 108.284 86.0099 108.52 85.799 108.968Z" fill="#004E89"/>
<path d="M89.6337 111.141C89.5059 111.256 89.3205 111.313 89.1352 111.313C88.7581 111.313 88.5536 111.096 88.5536 110.7V108.693H89.5762V108.309H88.5536V107.574H88.0999V108.309H87.4991V108.693H88.0999V110.725C88.0999 111.345 88.4514 111.703 89.0841 111.703C89.3461 111.703 89.6145 111.626 89.7935 111.466L89.6337 111.141Z" fill="#004E89"/>
<path d="M91.7954 108.284C91.265 108.284 90.7665 108.45 90.4278 108.738L90.6323 109.076C90.9071 108.833 91.3161 108.68 91.7507 108.68C92.377 108.68 92.7029 108.993 92.7029 109.568V109.773H91.6357C90.6706 109.773 90.3383 110.207 90.3383 110.725C90.3383 111.307 90.8048 111.703 91.5654 111.703C92.1214 111.703 92.5176 111.492 92.7221 111.147V111.671H93.1567V109.588C93.1567 108.718 92.6646 108.284 91.7954 108.284ZM91.6357 111.345C91.0988 111.345 90.7857 111.102 90.7857 110.712C90.7857 110.367 90.9966 110.112 91.6484 110.112H92.7029V110.661C92.524 111.102 92.1469 111.345 91.6357 111.345Z" fill="#004E89"/>
<path d="M96.1211 108.284C95.5842 108.284 95.1241 108.514 94.8429 108.948V106.929H94.3891V111.671H94.8237V111.006C95.0985 111.46 95.5651 111.703 96.1211 111.703C97.0797 111.703 97.7955 111.006 97.7955 109.99C97.7955 108.974 97.0797 108.284 96.1211 108.284ZM96.0891 111.3C95.3733 111.3 94.8365 110.776 94.8365 109.99C94.8365 109.204 95.3733 108.68 96.0891 108.68C96.7985 108.68 97.3417 109.204 97.3417 109.99C97.3417 110.776 96.7985 111.3 96.0891 111.3Z" fill="#004E89"/>
<path d="M98.7205 111.671H99.1742V106.929H98.7205V111.671Z" fill="#004E89"/>
<path d="M103.37 109.99C103.37 108.98 102.686 108.284 101.741 108.284C100.795 108.284 100.098 108.993 100.098 109.99C100.098 110.987 100.814 111.703 101.862 111.703C102.392 111.703 102.859 111.511 103.159 111.153L102.904 110.859C102.648 111.153 102.284 111.3 101.875 111.3C101.14 111.3 100.603 110.834 100.552 110.131H103.364C103.364 110.08 103.37 110.029 103.37 109.99ZM101.741 108.674C102.399 108.674 102.878 109.134 102.936 109.792H100.552C100.609 109.134 101.089 108.674 101.741 108.674Z" fill="#004E89"/>
<path fill-rule="evenodd" clip-rule="evenodd" d="M119.01 73.8416H95.6128V60.5591H73.3085V73.8416H72.4584V60.5591V51.099L56.55 39.9598L43.5965 30.8896V60.5591V73.8416H42.7464V60.5591V30.2945V29.2566L43.5965 29.8521L56.55 38.9219V0L43.5965 9.06985L42.7464 9.6653L28.7567 19.461L28.0155 19.9799L24.2473 22.6184V60.5591V73.8416H0V76.038H24.2473H42.7464H43.5965H56.55H72.4584H73.3085H95.6128H119.01V73.8416Z" fill="url(#paint0_linear_1361_1639)"/>
<defs>
<linearGradient id="paint0_linear_1361_1639" x1="10.2015" y1="12.2961" x2="108.809" y2="63.7417" gradientUnits="userSpaceOnUse">
<stop stop-color="#004E89"/>
<stop offset="0.478431" stop-color="#006EC2"/>
<stop offset="1" stop-color="#008FFC"/>
</linearGradient>
</defs>
</svg>
