<svg width="1440" height="866" viewBox="0 0 1440 866" fill="none" xmlns="http://www.w3.org/2000/svg">
<mask id="mask0_2002_463" style="mask-type:alpha" maskUnits="userSpaceOnUse" x="0" y="0" width="1440" height="866">
<rect width="1440" height="866" fill="#893B00"/>
</mask>
<g mask="url(#mask0_2002_463)">
<path d="M0.963478 1068.15L216.851 887.224L214.924 884.924L-0.963478 1065.85L0.963478 1068.15ZM212.258 1068.15L428.145 887.224L426.218 884.924L210.331 1065.85L212.258 1068.15ZM423.552 1068.15L639.44 887.224L637.513 884.924L421.625 1065.85L423.552 1068.15ZM634.846 1068.15L850.734 887.224L848.807 884.924L632.919 1065.85L634.846 1068.15ZM846.141 1068.15L1062.03 887.224L1060.1 884.924L844.214 1065.85L846.141 1068.15ZM1057.43 1068.15L1273.32 887.224L1271.4 884.924L1055.51 1065.85L1057.43 1068.15ZM1268.73 1068.15L1484.62 887.224L1482.69 884.924L1266.8 1065.85L1268.73 1068.15ZM1.38307 887.224L217.271 1068.15L219.198 1065.85L3.31003 884.924L1.38307 887.224ZM212.677 887.224L428.565 1068.15L430.492 1065.85L214.604 884.924L212.677 887.224ZM423.972 887.224L639.859 1068.15L641.786 1065.85L425.899 884.924L423.972 887.224ZM635.266 887.224L851.154 1068.15L853.081 1065.85L637.193 884.924L635.266 887.224ZM846.56 887.224L1062.45 1068.15L1064.37 1065.85L848.487 884.924L846.56 887.224ZM1057.85 887.224L1273.74 1068.15L1275.67 1065.85L1059.78 884.924L1057.85 887.224ZM1269.15 887.224L1485.04 1068.15L1486.96 1065.85L1271.08 884.924L1269.15 887.224ZM0.963478 890.935L216.851 710.009L214.924 707.709L-0.963478 888.636L0.963478 890.935ZM212.258 890.935L428.145 710.009L426.218 707.709L210.331 888.636L212.258 890.935ZM423.552 890.935L639.44 710.009L637.513 707.709L421.625 888.636L423.552 890.935ZM634.846 890.935L850.734 710.009L848.807 707.709L632.919 888.636L634.846 890.935ZM846.141 890.935L1062.03 710.009L1060.1 707.709L844.214 888.636L846.141 890.935ZM1057.43 890.935L1273.32 710.009L1271.4 707.709L1055.51 888.636L1057.43 890.935ZM1268.73 890.935L1484.62 710.009L1482.69 707.709L1266.8 888.636L1268.73 890.935ZM1.38307 710.009L217.271 890.935L219.198 888.636L3.31003 707.709L1.38307 710.009ZM212.677 710.009L428.565 890.935L430.492 888.636L214.604 707.709L212.677 710.009ZM423.972 710.009L639.859 890.935L641.786 888.636L425.899 707.709L423.972 710.009ZM635.266 710.009L851.154 890.935L853.081 888.636L637.193 707.709L635.266 710.009ZM846.56 710.009L1062.45 890.935L1064.37 888.636L848.487 707.709L846.56 710.009ZM1057.85 710.009L1273.74 890.935L1275.67 888.636L1059.78 707.709L1057.85 710.009ZM1269.15 710.009L1485.04 890.935L1486.96 888.636L1271.08 707.709L1269.15 710.009ZM0.963478 713.72L216.851 532.794L214.924 530.495L-0.963478 711.421L0.963478 713.72ZM212.258 713.72L428.145 532.794L426.218 530.495L210.331 711.421L212.258 713.72ZM423.552 713.72L639.44 532.794L637.513 530.495L421.625 711.421L423.552 713.72ZM634.846 713.72L850.734 532.794L848.807 530.495L632.919 711.421L634.846 713.72ZM846.141 713.72L1062.03 532.794L1060.1 530.495L844.214 711.421L846.141 713.72ZM1057.43 713.72L1273.32 532.794L1271.4 530.495L1055.51 711.421L1057.43 713.72ZM1268.73 713.72L1484.62 532.794L1482.69 530.495L1266.8 711.421L1268.73 713.72ZM1.38307 532.794L217.271 713.72L219.198 711.421L3.31003 530.495L1.38307 532.794ZM212.677 532.794L428.565 713.72L430.492 711.421L214.604 530.495L212.677 532.794ZM423.972 532.794L639.859 713.72L641.786 711.421L425.899 530.495L423.972 532.794ZM635.266 532.794L851.154 713.72L853.081 711.421L637.193 530.495L635.266 532.794ZM846.56 532.794L1062.45 713.72L1064.37 711.421L848.487 530.495L846.56 532.794ZM1057.85 532.794L1273.74 713.72L1275.67 711.421L1059.78 530.495L1057.85 532.794ZM1269.15 532.794L1485.04 713.72L1486.96 711.421L1271.08 530.495L1269.15 532.794ZM0.963478 536.505L216.851 355.579L214.924 353.28L-0.963478 534.206L0.963478 536.505ZM212.258 536.505L428.145 355.579L426.218 353.28L210.331 534.206L212.258 536.505ZM423.552 536.505L639.44 355.579L637.513 353.28L421.625 534.206L423.552 536.505ZM634.846 536.505L850.734 355.579L848.807 353.28L632.919 534.206L634.846 536.505ZM846.141 536.505L1062.03 355.579L1060.1 353.28L844.214 534.206L846.141 536.505ZM1057.43 536.505L1273.32 355.579L1271.4 353.28L1055.51 534.206L1057.43 536.505ZM1268.73 536.505L1484.62 355.579L1482.69 353.28L1266.8 534.206L1268.73 536.505ZM1.38307 355.579L217.271 536.505L219.198 534.206L3.31003 353.28L1.38307 355.579ZM212.677 355.579L428.565 536.505L430.492 534.206L214.604 353.28L212.677 355.579ZM423.972 355.579L639.859 536.505L641.786 534.206L425.899 353.28L423.972 355.579ZM635.266 355.579L851.154 536.505L853.081 534.206L637.193 353.28L635.266 355.579ZM846.56 355.579L1062.45 536.505L1064.37 534.206L848.487 353.28L846.56 355.579ZM1057.85 355.579L1273.74 536.505L1275.67 534.206L1059.78 353.28L1057.85 355.579ZM1269.15 355.579L1485.04 536.505L1486.96 534.206L1271.08 353.28L1269.15 355.579ZM0.963478 359.291L216.851 178.364L214.924 176.065L-0.963478 356.991L0.963478 359.291ZM212.258 359.291L428.145 178.364L426.218 176.065L210.331 356.991L212.258 359.291ZM423.552 359.291L639.44 178.364L637.513 176.065L421.625 356.991L423.552 359.291ZM634.846 359.291L850.734 178.364L848.807 176.065L632.919 356.991L634.846 359.291ZM846.141 359.291L1062.03 178.364L1060.1 176.065L844.214 356.991L846.141 359.291ZM1057.43 359.291L1273.32 178.364L1271.4 176.065L1055.51 356.991L1057.43 359.291ZM1268.73 359.291L1484.62 178.364L1482.69 176.065L1266.8 356.991L1268.73 359.291ZM1.38307 178.364L217.271 359.291L219.198 356.991L3.31003 176.065L1.38307 178.364ZM212.677 178.364L428.565 359.291L430.492 356.991L214.604 176.065L212.677 178.364ZM423.972 178.364L639.859 359.291L641.786 356.991L425.899 176.065L423.972 178.364ZM635.266 178.364L851.154 359.291L853.081 356.991L637.193 176.065L635.266 178.364ZM846.56 178.364L1062.45 359.291L1064.37 356.991L848.487 176.065L846.56 178.364ZM1057.85 178.364L1273.74 359.291L1275.67 356.991L1059.78 176.065L1057.85 178.364ZM1269.15 178.364L1485.04 359.291L1486.96 356.991L1271.08 176.065L1269.15 178.364ZM0.963478 182.076L216.851 1.14966L214.924 -1.14966L-0.963478 179.776L0.963478 182.076ZM212.258 182.076L428.145 1.14966L426.218 -1.14966L210.331 179.776L212.258 182.076ZM423.552 182.076L639.44 1.14966L637.513 -1.14966L421.625 179.776L423.552 182.076ZM634.846 182.076L850.734 1.14966L848.807 -1.14966L632.919 179.776L634.846 182.076ZM846.141 182.076L1062.03 1.14966L1060.1 -1.14966L844.214 179.776L846.141 182.076ZM1057.43 182.076L1273.32 1.14966L1271.4 -1.14966L1055.51 179.776L1057.43 182.076ZM1268.73 182.076L1484.62 1.14966L1482.69 -1.14966L1266.8 179.776L1268.73 182.076ZM1.38307 1.14966L217.271 182.076L219.198 179.776L3.31003 -1.14965L1.38307 1.14966ZM212.677 1.14966L428.565 182.076L430.492 179.776L214.604 -1.14965L212.677 1.14966ZM423.972 1.14966L639.859 182.076L641.786 179.776L425.899 -1.14965L423.972 1.14966ZM635.266 1.14966L851.154 182.076L853.081 179.776L637.193 -1.14965L635.266 1.14966ZM846.56 1.14966L1062.45 182.076L1064.37 179.776L848.487 -1.14965L846.56 1.14966ZM1057.85 1.14966L1273.74 182.076L1275.67 179.776L1059.78 -1.14965L1057.85 1.14966ZM1269.15 1.14966L1485.04 182.076L1486.96 179.776L1271.08 -1.14965L1269.15 1.14966Z" fill="#893B00" fill-opacity="0.03"/>
</g>
</svg>
